solid OpenSCAD_Model
  facet normal 0.998629 0.0523377 0
    outer loop
      vertex 2.5 0 1.55
      vertex 2.4863 0.261321 0
      vertex 2.4863 0.261321 1.55
    endloop
  endfacet
  facet normal 0.998629 0.0523377 0
    outer loop
      vertex 2.4863 0.261321 0
      vertex 2.5 0 1.55
      vertex 2.5 0 0
    endloop
  endfacet
  facet normal -0.998629 0.0523377 0
    outer loop
      vertex -2.5 0 0
      vertex -2.4863 0.261321 1.55
      vertex -2.4863 0.261321 0
    endloop
  endfacet
  facet normal -0.998629 0.0523377 0
    outer loop
      vertex -2.4863 0.261321 1.55
      vertex -2.5 0 0
      vertex -2.5 0 1.55
    endloop
  endfacet
  facet normal 0.0523377 0.998629 -0
    outer loop
      vertex 0.261321 2.4863 0
      vertex 0 2.5 1.55
      vertex 0.261321 2.4863 1.55
    endloop
  endfacet
  facet normal 0.0523377 0.998629 0
    outer loop
      vertex 0 2.5 1.55
      vertex 0.261321 2.4863 0
      vertex 0 2.5 0
    endloop
  endfacet
  facet normal 0.707107 0.707107 0
    outer loop
      vertex 1.85786 1.67283 1.55
      vertex 1.67283 1.85786 0
      vertex 1.67283 1.85786 1.55
    endloop
  endfacet
  facet normal 0.707107 0.707107 0
    outer loop
      vertex 1.67283 1.85786 0
      vertex 1.85786 1.67283 1.55
      vertex 1.85786 1.67283 0
    endloop
  endfacet
  facet normal -0.62932 0.777146 0
    outer loop
      vertex -1.46946 2.02254 0
      vertex -1.67283 1.85786 1.55
      vertex -1.46946 2.02254 1.55
    endloop
  endfacet
  facet normal -0.62932 0.777146 0
    outer loop
      vertex -1.67283 1.85786 1.55
      vertex -1.46946 2.02254 0
      vertex -1.67283 1.85786 0
    endloop
  endfacet
  facet normal -0.358368 0.93358 0
    outer loop
      vertex -0.772542 2.37764 0
      vertex -1.01684 2.28386 1.55
      vertex -0.772542 2.37764 1.55
    endloop
  endfacet
  facet normal -0.358368 0.93358 0
    outer loop
      vertex -1.01684 2.28386 1.55
      vertex -0.772542 2.37764 0
      vertex -1.01684 2.28386 0
    endloop
  endfacet
  facet normal -0.777146 -0.62932 0
    outer loop
      vertex -1.85786 -1.67283 0
      vertex -2.02254 -1.46946 1.55
      vertex -2.02254 -1.46946 0
    endloop
  endfacet
  facet normal -0.777146 -0.62932 0
    outer loop
      vertex -2.02254 -1.46946 1.55
      vertex -1.85786 -1.67283 0
      vertex -1.85786 -1.67283 1.55
    endloop
  endfacet
  facet normal 0.965925 0.258821 0
    outer loop
      vertex 2.44537 0.519779 1.55
      vertex 2.37764 0.772542 0
      vertex 2.37764 0.772542 1.55
    endloop
  endfacet
  facet normal 0.965925 0.258821 0
    outer loop
      vertex 2.37764 0.772542 0
      vertex 2.44537 0.519779 1.55
      vertex 2.44537 0.519779 0
    endloop
  endfacet
  facet normal 0.987688 0.156434 0
    outer loop
      vertex 2.4863 0.261321 1.55
      vertex 2.44537 0.519779 0
      vertex 2.44537 0.519779 1.55
    endloop
  endfacet
  facet normal 0.987688 0.156434 0
    outer loop
      vertex 2.44537 0.519779 0
      vertex 2.4863 0.261321 1.55
      vertex 2.4863 0.261321 0
    endloop
  endfacet
  facet normal 0.45399 0.891007 -0
    outer loop
      vertex 1.25 2.16506 0
      vertex 1.01684 2.28386 1.55
      vertex 1.25 2.16506 1.55
    endloop
  endfacet
  facet normal 0.45399 0.891007 0
    outer loop
      vertex 1.01684 2.28386 1.55
      vertex 1.25 2.16506 0
      vertex 1.01684 2.28386 0
    endloop
  endfacet
  facet normal 0.62932 0.777146 -0
    outer loop
      vertex 1.67283 1.85786 0
      vertex 1.46946 2.02254 1.55
      vertex 1.67283 1.85786 1.55
    endloop
  endfacet
  facet normal 0.62932 0.777146 0
    outer loop
      vertex 1.46946 2.02254 1.55
      vertex 1.67283 1.85786 0
      vertex 1.46946 2.02254 0
    endloop
  endfacet
  facet normal -0.838671 0.544638 0
    outer loop
      vertex -2.16506 1.25 0
      vertex -2.02254 1.46946 1.55
      vertex -2.02254 1.46946 0
    endloop
  endfacet
  facet normal -0.838671 0.544638 0
    outer loop
      vertex -2.02254 1.46946 1.55
      vertex -2.16506 1.25 0
      vertex -2.16506 1.25 1.55
    endloop
  endfacet
  facet normal -0.777146 0.62932 0
    outer loop
      vertex -2.02254 1.46946 0
      vertex -1.85786 1.67283 1.55
      vertex -1.85786 1.67283 0
    endloop
  endfacet
  facet normal -0.777146 0.62932 0
    outer loop
      vertex -1.85786 1.67283 1.55
      vertex -2.02254 1.46946 0
      vertex -2.02254 1.46946 1.55
    endloop
  endfacet
  facet normal -0.544638 0.838671 0
    outer loop
      vertex -1.25 2.16506 0
      vertex -1.46946 2.02254 1.55
      vertex -1.25 2.16506 1.55
    endloop
  endfacet
  facet normal -0.544638 0.838671 0
    outer loop
      vertex -1.46946 2.02254 1.55
      vertex -1.25 2.16506 0
      vertex -1.46946 2.02254 0
    endloop
  endfacet
  facet normal 0.891006 -0.453991 0
    outer loop
      vertex 2.16506 -1.25 1.55
      vertex 2.28386 -1.01684 0
      vertex 2.28386 -1.01684 1.55
    endloop
  endfacet
  facet normal 0.891006 -0.453991 0
    outer loop
      vertex 2.28386 -1.01684 0
      vertex 2.16506 -1.25 1.55
      vertex 2.16506 -1.25 0
    endloop
  endfacet
  facet normal 0.258821 -0.965925 0
    outer loop
      vertex 0.519779 -2.44537 0
      vertex 0.772542 -2.37764 1.55
      vertex 0.519779 -2.44537 1.55
    endloop
  endfacet
  facet normal 0.258821 -0.965925 0
    outer loop
      vertex 0.772542 -2.37764 1.55
      vertex 0.519779 -2.44537 0
      vertex 0.772542 -2.37764 0
    endloop
  endfacet
  facet normal 0.707107 -0.707107 0
    outer loop
      vertex 1.67283 -1.85786 1.55
      vertex 1.85786 -1.67283 0
      vertex 1.85786 -1.67283 1.55
    endloop
  endfacet
  facet normal 0.707107 -0.707107 0
    outer loop
      vertex 1.85786 -1.67283 0
      vertex 1.67283 -1.85786 1.55
      vertex 1.67283 -1.85786 0
    endloop
  endfacet
  facet normal 0.965925 -0.258821 0
    outer loop
      vertex 2.37764 -0.772542 1.55
      vertex 2.44537 -0.519779 0
      vertex 2.44537 -0.519779 1.55
    endloop
  endfacet
  facet normal 0.965925 -0.258821 0
    outer loop
      vertex 2.44537 -0.519779 0
      vertex 2.37764 -0.772542 1.55
      vertex 2.37764 -0.772542 0
    endloop
  endfacet
  facet normal -0.358368 -0.93358 0
    outer loop
      vertex -1.01684 -2.28386 0
      vertex -0.772542 -2.37764 1.55
      vertex -1.01684 -2.28386 1.55
    endloop
  endfacet
  facet normal -0.358368 -0.93358 -0
    outer loop
      vertex -0.772542 -2.37764 1.55
      vertex -1.01684 -2.28386 0
      vertex -0.772542 -2.37764 0
    endloop
  endfacet
  facet normal -0.54464 -0.83867 0
    outer loop
      vertex -1.46946 -2.02254 0
      vertex -1.25 -2.16506 1.55
      vertex -1.46946 -2.02254 1.55
    endloop
  endfacet
  facet normal -0.54464 -0.83867 -0
    outer loop
      vertex -1.25 -2.16506 1.55
      vertex -1.46946 -2.02254 0
      vertex -1.25 -2.16506 0
    endloop
  endfacet
  facet normal 0.93358 0.358368 0
    outer loop
      vertex 2.37764 0.772542 1.55
      vertex 2.28386 1.01684 0
      vertex 2.28386 1.01684 1.55
    endloop
  endfacet
  facet normal 0.93358 0.358368 0
    outer loop
      vertex 2.28386 1.01684 0
      vertex 2.37764 0.772542 1.55
      vertex 2.37764 0.772542 0
    endloop
  endfacet
  facet normal 0.891006 0.453991 0
    outer loop
      vertex 2.28386 1.01684 1.55
      vertex 2.16506 1.25 0
      vertex 2.16506 1.25 1.55
    endloop
  endfacet
  facet normal 0.891006 0.453991 0
    outer loop
      vertex 2.16506 1.25 0
      vertex 2.28386 1.01684 1.55
      vertex 2.28386 1.01684 0
    endloop
  endfacet
  facet normal 0.838671 0.544638 0
    outer loop
      vertex 2.16506 1.25 1.55
      vertex 2.02254 1.46946 0
      vertex 2.02254 1.46946 1.55
    endloop
  endfacet
  facet normal 0.838671 0.544638 0
    outer loop
      vertex 2.02254 1.46946 0
      vertex 2.16506 1.25 1.55
      vertex 2.16506 1.25 0
    endloop
  endfacet
  facet normal 0.358368 0.93358 -0
    outer loop
      vertex 1.01684 2.28386 0
      vertex 0.772542 2.37764 1.55
      vertex 1.01684 2.28386 1.55
    endloop
  endfacet
  facet normal 0.358368 0.93358 0
    outer loop
      vertex 0.772542 2.37764 1.55
      vertex 1.01684 2.28386 0
      vertex 0.772542 2.37764 0
    endloop
  endfacet
  facet normal 0.258821 0.965925 -0
    outer loop
      vertex 0.772542 2.37764 0
      vertex 0.519779 2.44537 1.55
      vertex 0.772542 2.37764 1.55
    endloop
  endfacet
  facet normal 0.258821 0.965925 0
    outer loop
      vertex 0.519779 2.44537 1.55
      vertex 0.772542 2.37764 0
      vertex 0.519779 2.44537 0
    endloop
  endfacet
  facet normal 0.156434 0.987688 -0
    outer loop
      vertex 0.519779 2.44537 0
      vertex 0.261321 2.4863 1.55
      vertex 0.519779 2.44537 1.55
    endloop
  endfacet
  facet normal 0.156434 0.987688 0
    outer loop
      vertex 0.261321 2.4863 1.55
      vertex 0.519779 2.44537 0
      vertex 0.261321 2.4863 0
    endloop
  endfacet
  facet normal 0.54464 0.83867 -0
    outer loop
      vertex 1.46946 2.02254 0
      vertex 1.25 2.16506 1.55
      vertex 1.46946 2.02254 1.55
    endloop
  endfacet
  facet normal 0.54464 0.83867 0
    outer loop
      vertex 1.25 2.16506 1.55
      vertex 1.46946 2.02254 0
      vertex 1.25 2.16506 0
    endloop
  endfacet
  facet normal -0.707107 0.707107 0
    outer loop
      vertex -1.85786 1.67283 0
      vertex -1.67283 1.85786 1.55
      vertex -1.67283 1.85786 0
    endloop
  endfacet
  facet normal -0.707107 0.707107 0
    outer loop
      vertex -1.67283 1.85786 1.55
      vertex -1.85786 1.67283 0
      vertex -1.85786 1.67283 1.55
    endloop
  endfacet
  facet normal -0.891006 0.453991 0
    outer loop
      vertex -2.28386 1.01684 0
      vertex -2.16506 1.25 1.55
      vertex -2.16506 1.25 0
    endloop
  endfacet
  facet normal -0.891006 0.453991 0
    outer loop
      vertex -2.16506 1.25 1.55
      vertex -2.28386 1.01684 0
      vertex -2.28386 1.01684 1.55
    endloop
  endfacet
  facet normal -0.93358 0.358368 0
    outer loop
      vertex -2.37764 0.772542 0
      vertex -2.28386 1.01684 1.55
      vertex -2.28386 1.01684 0
    endloop
  endfacet
  facet normal -0.93358 0.358368 0
    outer loop
      vertex -2.28386 1.01684 1.55
      vertex -2.37764 0.772542 0
      vertex -2.37764 0.772542 1.55
    endloop
  endfacet
  facet normal -0.965925 0.258821 0
    outer loop
      vertex -2.44537 0.519779 0
      vertex -2.37764 0.772542 1.55
      vertex -2.37764 0.772542 0
    endloop
  endfacet
  facet normal -0.965925 0.258821 0
    outer loop
      vertex -2.37764 0.772542 1.55
      vertex -2.44537 0.519779 0
      vertex -2.44537 0.519779 1.55
    endloop
  endfacet
  facet normal -0.987688 0.156434 0
    outer loop
      vertex -2.4863 0.261321 0
      vertex -2.44537 0.519779 1.55
      vertex -2.44537 0.519779 0
    endloop
  endfacet
  facet normal -0.987688 0.156434 0
    outer loop
      vertex -2.44537 0.519779 1.55
      vertex -2.4863 0.261321 0
      vertex -2.4863 0.261321 1.55
    endloop
  endfacet
  facet normal -0.453991 0.891006 0
    outer loop
      vertex -1.01684 2.28386 0
      vertex -1.25 2.16506 1.55
      vertex -1.01684 2.28386 1.55
    endloop
  endfacet
  facet normal -0.453991 0.891006 0
    outer loop
      vertex -1.25 2.16506 1.55
      vertex -1.01684 2.28386 0
      vertex -1.25 2.16506 0
    endloop
  endfacet
  facet normal -0.0523377 0.998629 0
    outer loop
      vertex 0 2.5 0
      vertex -0.261321 2.4863 1.55
      vertex 0 2.5 1.55
    endloop
  endfacet
  facet normal -0.0523377 0.998629 0
    outer loop
      vertex -0.261321 2.4863 1.55
      vertex 0 2.5 0
      vertex -0.261321 2.4863 0
    endloop
  endfacet
  facet normal -0.156434 0.987688 0
    outer loop
      vertex -0.261321 2.4863 0
      vertex -0.519779 2.44537 1.55
      vertex -0.261321 2.4863 1.55
    endloop
  endfacet
  facet normal -0.156434 0.987688 0
    outer loop
      vertex -0.519779 2.44537 1.55
      vertex -0.261321 2.4863 0
      vertex -0.519779 2.44537 0
    endloop
  endfacet
  facet normal 0.0523377 -0.998629 0
    outer loop
      vertex 0 -2.5 0
      vertex 0.261321 -2.4863 1.55
      vertex 0 -2.5 1.55
    endloop
  endfacet
  facet normal 0.0523377 -0.998629 0
    outer loop
      vertex 0.261321 -2.4863 1.55
      vertex 0 -2.5 0
      vertex 0.261321 -2.4863 0
    endloop
  endfacet
  facet normal 0.156434 -0.987688 0
    outer loop
      vertex 0.261321 -2.4863 0
      vertex 0.519779 -2.44537 1.55
      vertex 0.261321 -2.4863 1.55
    endloop
  endfacet
  facet normal 0.156434 -0.987688 0
    outer loop
      vertex 0.519779 -2.44537 1.55
      vertex 0.261321 -2.4863 0
      vertex 0.519779 -2.44537 0
    endloop
  endfacet
  facet normal 0.45399 -0.891007 0
    outer loop
      vertex 1.01684 -2.28386 0
      vertex 1.25 -2.16506 1.55
      vertex 1.01684 -2.28386 1.55
    endloop
  endfacet
  facet normal 0.45399 -0.891007 0
    outer loop
      vertex 1.25 -2.16506 1.55
      vertex 1.01684 -2.28386 0
      vertex 1.25 -2.16506 0
    endloop
  endfacet
  facet normal 0.62932 -0.777146 0
    outer loop
      vertex 1.46946 -2.02254 0
      vertex 1.67283 -1.85786 1.55
      vertex 1.46946 -2.02254 1.55
    endloop
  endfacet
  facet normal 0.62932 -0.777146 0
    outer loop
      vertex 1.67283 -1.85786 1.55
      vertex 1.46946 -2.02254 0
      vertex 1.67283 -1.85786 0
    endloop
  endfacet
  facet normal 0.777146 -0.62932 0
    outer loop
      vertex 1.85786 -1.67283 1.55
      vertex 2.02254 -1.46946 0
      vertex 2.02254 -1.46946 1.55
    endloop
  endfacet
  facet normal 0.777146 -0.62932 0
    outer loop
      vertex 2.02254 -1.46946 0
      vertex 1.85786 -1.67283 1.55
      vertex 1.85786 -1.67283 0
    endloop
  endfacet
  facet normal 0.838671 -0.544638 0
    outer loop
      vertex 2.02254 -1.46946 1.55
      vertex 2.16506 -1.25 0
      vertex 2.16506 -1.25 1.55
    endloop
  endfacet
  facet normal 0.838671 -0.544638 0
    outer loop
      vertex 2.16506 -1.25 0
      vertex 2.02254 -1.46946 1.55
      vertex 2.02254 -1.46946 0
    endloop
  endfacet
  facet normal -0.156434 -0.987688 0
    outer loop
      vertex -0.519779 -2.44537 0
      vertex -0.261321 -2.4863 1.55
      vertex -0.519779 -2.44537 1.55
    endloop
  endfacet
  facet normal -0.156434 -0.987688 -0
    outer loop
      vertex -0.261321 -2.4863 1.55
      vertex -0.519779 -2.44537 0
      vertex -0.261321 -2.4863 0
    endloop
  endfacet
  facet normal -0.707107 -0.707107 0
    outer loop
      vertex -1.67283 -1.85786 0
      vertex -1.85786 -1.67283 1.55
      vertex -1.85786 -1.67283 0
    endloop
  endfacet
  facet normal -0.707107 -0.707107 0
    outer loop
      vertex -1.85786 -1.67283 1.55
      vertex -1.67283 -1.85786 0
      vertex -1.67283 -1.85786 1.55
    endloop
  endfacet
  facet normal -0.0523377 -0.998629 0
    outer loop
      vertex -0.261321 -2.4863 0
      vertex 0 -2.5 1.55
      vertex -0.261321 -2.4863 1.55
    endloop
  endfacet
  facet normal -0.0523377 -0.998629 -0
    outer loop
      vertex 0 -2.5 1.55
      vertex -0.261321 -2.4863 0
      vertex 0 -2.5 0
    endloop
  endfacet
  facet normal -0.62932 -0.777146 0
    outer loop
      vertex -1.67283 -1.85786 0
      vertex -1.46946 -2.02254 1.55
      vertex -1.67283 -1.85786 1.55
    endloop
  endfacet
  facet normal -0.62932 -0.777146 -0
    outer loop
      vertex -1.46946 -2.02254 1.55
      vertex -1.67283 -1.85786 0
      vertex -1.46946 -2.02254 0
    endloop
  endfacet
  facet normal -0.891006 -0.453991 0
    outer loop
      vertex -2.16506 -1.25 0
      vertex -2.28386 -1.01684 1.55
      vertex -2.28386 -1.01684 0
    endloop
  endfacet
  facet normal -0.891006 -0.453991 0
    outer loop
      vertex -2.28386 -1.01684 1.55
      vertex -2.16506 -1.25 0
      vertex -2.16506 -1.25 1.55
    endloop
  endfacet
  facet normal -0.965925 -0.258821 0
    outer loop
      vertex -2.37764 -0.772542 0
      vertex -2.44537 -0.519779 1.55
      vertex -2.44537 -0.519779 0
    endloop
  endfacet
  facet normal -0.965925 -0.258821 0
    outer loop
      vertex -2.44537 -0.519779 1.55
      vertex -2.37764 -0.772542 0
      vertex -2.37764 -0.772542 1.55
    endloop
  endfacet
  facet normal -0.998629 -0.0523377 0
    outer loop
      vertex -2.4863 -0.261321 0
      vertex -2.5 0 1.55
      vertex -2.5 0 0
    endloop
  endfacet
  facet normal -0.998629 -0.0523377 0
    outer loop
      vertex -2.5 0 1.55
      vertex -2.4863 -0.261321 0
      vertex -2.4863 -0.261321 1.55
    endloop
  endfacet
  facet normal 0 0 -1
    outer loop
      vertex 1.5 0 0
      vertex 2.5 0 0
      vertex 2.4863 -0.261321 0
    endloop
  endfacet
  facet normal 0 0 -1
    outer loop
      vertex 1.49178 -0.156793 0
      vertex 2.4863 -0.261321 0
      vertex 2.44537 -0.519779 0
    endloop
  endfacet
  facet normal 0 0 -1
    outer loop
      vertex 2.5 0 0
      vertex 1.5 0 0
      vertex 2.4863 0.261321 0
    endloop
  endfacet
  facet normal 0 0 -1
    outer loop
      vertex 1.46722 -0.311867 0
      vertex 2.44537 -0.519779 0
      vertex 2.37764 -0.772542 0
    endloop
  endfacet
  facet normal 0 0 -1
    outer loop
      vertex 1.49178 0.156793 0
      vertex 2.4863 0.261321 0
      vertex 1.5 0 0
    endloop
  endfacet
  facet normal 0 0 -1
    outer loop
      vertex 1.42658 -0.463525 0
      vertex 2.37764 -0.772542 0
      vertex 2.28386 -1.01684 0
    endloop
  endfacet
  facet normal -0 0 -1
    outer loop
      vertex 2.4863 0.261321 0
      vertex 1.49178 0.156793 0
      vertex 2.44537 0.519779 0
    endloop
  endfacet
  facet normal 0 0 -1
    outer loop
      vertex 1.37032 -0.610105 0
      vertex 2.28386 -1.01684 0
      vertex 2.16506 -1.25 0
    endloop
  endfacet
  facet normal 0 0 -1
    outer loop
      vertex 1.46722 0.311867 0
      vertex 2.44537 0.519779 0
      vertex 1.49178 0.156793 0
    endloop
  endfacet
  facet normal 0 0 -1
    outer loop
      vertex 1.29904 -0.749999 0
      vertex 2.16506 -1.25 0
      vertex 2.02254 -1.46946 0
    endloop
  endfacet
  facet normal -0 0 -1
    outer loop
      vertex 2.44537 0.519779 0
      vertex 1.46722 0.311867 0
      vertex 2.37764 0.772542 0
    endloop
  endfacet
  facet normal 0 0 -1
    outer loop
      vertex 1.21352 -0.881678 0
      vertex 2.02254 -1.46946 0
      vertex 1.85786 -1.67283 0
    endloop
  endfacet
  facet normal 0 0 -1
    outer loop
      vertex 1.42658 0.463525 0
      vertex 2.37764 0.772542 0
      vertex 1.46722 0.311867 0
    endloop
  endfacet
  facet normal 0 0 -1
    outer loop
      vertex 1.11472 -1.0037 0
      vertex 1.85786 -1.67283 0
      vertex 1.67283 -1.85786 0
    endloop
  endfacet
  facet normal -0 0 -1
    outer loop
      vertex 2.37764 0.772542 0
      vertex 1.42658 0.463525 0
      vertex 2.28386 1.01684 0
    endloop
  endfacet
  facet normal 0 0 -1
    outer loop
      vertex 1.37032 0.610105 0
      vertex 2.28386 1.01684 0
      vertex 1.42658 0.463525 0
    endloop
  endfacet
  facet normal 0 0 -1
    outer loop
      vertex 2.4863 -0.261321 0
      vertex 1.49178 -0.156793 0
      vertex 1.5 0 0
    endloop
  endfacet
  facet normal 0 0 -1
    outer loop
      vertex 1.0037 -1.11472 0
      vertex 1.67283 -1.85786 0
      vertex 1.46946 -2.02254 0
    endloop
  endfacet
  facet normal 0 0 -1
    outer loop
      vertex 2.44537 -0.519779 0
      vertex 1.46722 -0.311867 0
      vertex 1.49178 -0.156793 0
    endloop
  endfacet
  facet normal 0 0 -1
    outer loop
      vertex 2.37764 -0.772542 0
      vertex 1.42658 -0.463525 0
      vertex 1.46722 -0.311867 0
    endloop
  endfacet
  facet normal 0 0 -1
    outer loop
      vertex 2.28386 -1.01684 0
      vertex 1.37032 -0.610105 0
      vertex 1.42658 -0.463525 0
    endloop
  endfacet
  facet normal 0 0 -1
    outer loop
      vertex 2.16506 -1.25 0
      vertex 1.29904 -0.749999 0
      vertex 1.37032 -0.610105 0
    endloop
  endfacet
  facet normal 0 0 -1
    outer loop
      vertex 0.881678 -1.21352 0
      vertex 1.46946 -2.02254 0
      vertex 1.25 -2.16506 0
    endloop
  endfacet
  facet normal 0 0 -1
    outer loop
      vertex 2.02254 -1.46946 0
      vertex 1.21352 -0.881678 0
      vertex 1.29904 -0.749999 0
    endloop
  endfacet
  facet normal 0 0 -1
    outer loop
      vertex 1.85786 -1.67283 0
      vertex 1.11472 -1.0037 0
      vertex 1.21352 -0.881678 0
    endloop
  endfacet
  facet normal 0 0 -1
    outer loop
      vertex 0.75 -1.29904 0
      vertex 1.25 -2.16506 0
      vertex 1.01684 -2.28386 0
    endloop
  endfacet
  facet normal 0 0 -1
    outer loop
      vertex 1.67283 -1.85786 0
      vertex 1.0037 -1.11472 0
      vertex 1.11472 -1.0037 0
    endloop
  endfacet
  facet normal 0 0 -1
    outer loop
      vertex 1.46946 -2.02254 0
      vertex 0.881678 -1.21352 0
      vertex 1.0037 -1.11472 0
    endloop
  endfacet
  facet normal 0 0 -1
    outer loop
      vertex 0.610105 -1.37032 0
      vertex 1.01684 -2.28386 0
      vertex 0.772542 -2.37764 0
    endloop
  endfacet
  facet normal 0 0 -1
    outer loop
      vertex 1.25 -2.16506 0
      vertex 0.75 -1.29904 0
      vertex 0.881678 -1.21352 0
    endloop
  endfacet
  facet normal 0 0 -1
    outer loop
      vertex 1.01684 -2.28386 0
      vertex 0.610105 -1.37032 0
      vertex 0.75 -1.29904 0
    endloop
  endfacet
  facet normal 0 0 -1
    outer loop
      vertex 0.463525 -1.42658 0
      vertex 0.772542 -2.37764 0
      vertex 0.519779 -2.44537 0
    endloop
  endfacet
  facet normal 0 0 -1
    outer loop
      vertex 0.772542 -2.37764 0
      vertex 0.463525 -1.42658 0
      vertex 0.610105 -1.37032 0
    endloop
  endfacet
  facet normal 0 0 -1
    outer loop
      vertex 0.519779 -2.44537 0
      vertex 0.311867 -1.46722 0
      vertex 0.463525 -1.42658 0
    endloop
  endfacet
  facet normal 0 0 -1
    outer loop
      vertex 0.261321 -2.4863 0
      vertex 0.311867 -1.46722 0
      vertex 0.519779 -2.44537 0
    endloop
  endfacet
  facet normal 0 0 -1
    outer loop
      vertex 0.261321 -2.4863 0
      vertex 0.156793 -1.49178 0
      vertex 0.311867 -1.46722 0
    endloop
  endfacet
  facet normal 0 0 -1
    outer loop
      vertex 0 -2.5 0
      vertex 0.156793 -1.49178 0
      vertex 0.261321 -2.4863 0
    endloop
  endfacet
  facet normal 0 0 -1
    outer loop
      vertex 0 -2.5 0
      vertex 0 -1.5 0
      vertex 0.156793 -1.49178 0
    endloop
  endfacet
  facet normal 0 0 -1
    outer loop
      vertex 0 -2.5 0
      vertex -0.156793 -1.49178 0
      vertex 0 -1.5 0
    endloop
  endfacet
  facet normal 0 0 -1
    outer loop
      vertex -0.261321 -2.4863 0
      vertex -0.156793 -1.49178 0
      vertex 0 -2.5 0
    endloop
  endfacet
  facet normal 0 0 -1
    outer loop
      vertex -0.261321 -2.4863 0
      vertex -0.311867 -1.46722 0
      vertex -0.156793 -1.49178 0
    endloop
  endfacet
  facet normal 0 0 -1
    outer loop
      vertex -0.519779 -2.44537 0
      vertex -0.311867 -1.46722 0
      vertex -0.261321 -2.4863 0
    endloop
  endfacet
  facet normal -0 0 -1
    outer loop
      vertex -0.311867 -1.46722 0
      vertex -0.519779 -2.44537 0
      vertex -0.463525 -1.42658 0
    endloop
  endfacet
  facet normal 0 0 -1
    outer loop
      vertex -0.772542 -2.37764 0
      vertex -0.463525 -1.42658 0
      vertex -0.519779 -2.44537 0
    endloop
  endfacet
  facet normal -0 0 -1
    outer loop
      vertex -0.463525 -1.42658 0
      vertex -0.772542 -2.37764 0
      vertex -0.610105 -1.37032 0
    endloop
  endfacet
  facet normal 0 0 -1
    outer loop
      vertex -1.01684 -2.28386 0
      vertex -0.610105 -1.37032 0
      vertex -0.772542 -2.37764 0
    endloop
  endfacet
  facet normal -0 0 -1
    outer loop
      vertex -0.610105 -1.37032 0
      vertex -1.01684 -2.28386 0
      vertex -0.75 -1.29904 0
    endloop
  endfacet
  facet normal 0 0 -1
    outer loop
      vertex -1.25 -2.16506 0
      vertex -0.75 -1.29904 0
      vertex -1.01684 -2.28386 0
    endloop
  endfacet
  facet normal -0 0 -1
    outer loop
      vertex -0.75 -1.29904 0
      vertex -1.25 -2.16506 0
      vertex -0.881678 -1.21352 0
    endloop
  endfacet
  facet normal 0 0 -1
    outer loop
      vertex -1.46946 -2.02254 0
      vertex -0.881678 -1.21352 0
      vertex -1.25 -2.16506 0
    endloop
  endfacet
  facet normal -0 0 -1
    outer loop
      vertex -0.881678 -1.21352 0
      vertex -1.46946 -2.02254 0
      vertex -1.0037 -1.11472 0
    endloop
  endfacet
  facet normal 0 0 -1
    outer loop
      vertex -1.67283 -1.85786 0
      vertex -1.0037 -1.11472 0
      vertex -1.46946 -2.02254 0
    endloop
  endfacet
  facet normal -0 0 -1
    outer loop
      vertex -1.0037 -1.11472 0
      vertex -1.67283 -1.85786 0
      vertex -1.11472 -1.0037 0
    endloop
  endfacet
  facet normal 0 0 -1
    outer loop
      vertex -1.85786 -1.67283 0
      vertex -1.11472 -1.0037 0
      vertex -1.67283 -1.85786 0
    endloop
  endfacet
  facet normal -0 0 -1
    outer loop
      vertex -1.11472 -1.0037 0
      vertex -1.85786 -1.67283 0
      vertex -1.21352 -0.881678 0
    endloop
  endfacet
  facet normal 0 0 -1
    outer loop
      vertex -2.02254 -1.46946 0
      vertex -1.21352 -0.881678 0
      vertex -1.85786 -1.67283 0
    endloop
  endfacet
  facet normal -0 0 -1
    outer loop
      vertex -1.21352 -0.881678 0
      vertex -2.02254 -1.46946 0
      vertex -1.29904 -0.749999 0
    endloop
  endfacet
  facet normal 0 0 -1
    outer loop
      vertex -2.16506 -1.25 0
      vertex -1.29904 -0.749999 0
      vertex -2.02254 -1.46946 0
    endloop
  endfacet
  facet normal -0 0 -1
    outer loop
      vertex -1.29904 -0.749999 0
      vertex -2.16506 -1.25 0
      vertex -1.37032 -0.610105 0
    endloop
  endfacet
  facet normal 0 0 -1
    outer loop
      vertex -2.28386 -1.01684 0
      vertex -1.37032 -0.610105 0
      vertex -2.16506 -1.25 0
    endloop
  endfacet
  facet normal -0 0 -1
    outer loop
      vertex 2.28386 1.01684 0
      vertex 1.37032 0.610105 0
      vertex 2.16506 1.25 0
    endloop
  endfacet
  facet normal 0 0 -1
    outer loop
      vertex 1.29904 0.749999 0
      vertex 2.16506 1.25 0
      vertex 1.37032 0.610105 0
    endloop
  endfacet
  facet normal -0 0 -1
    outer loop
      vertex 2.16506 1.25 0
      vertex 1.29904 0.749999 0
      vertex 2.02254 1.46946 0
    endloop
  endfacet
  facet normal 0 0 -1
    outer loop
      vertex 1.21352 0.881678 0
      vertex 2.02254 1.46946 0
      vertex 1.29904 0.749999 0
    endloop
  endfacet
  facet normal -0 0 -1
    outer loop
      vertex 2.02254 1.46946 0
      vertex 1.21352 0.881678 0
      vertex 1.85786 1.67283 0
    endloop
  endfacet
  facet normal 0 0 -1
    outer loop
      vertex 1.11472 1.0037 0
      vertex 1.85786 1.67283 0
      vertex 1.21352 0.881678 0
    endloop
  endfacet
  facet normal -0 0 -1
    outer loop
      vertex 1.85786 1.67283 0
      vertex 1.11472 1.0037 0
      vertex 1.67283 1.85786 0
    endloop
  endfacet
  facet normal 0 0 -1
    outer loop
      vertex 1.0037 1.11472 0
      vertex 1.67283 1.85786 0
      vertex 1.11472 1.0037 0
    endloop
  endfacet
  facet normal -0 0 -1
    outer loop
      vertex 1.67283 1.85786 0
      vertex 1.0037 1.11472 0
      vertex 1.46946 2.02254 0
    endloop
  endfacet
  facet normal 0 0 -1
    outer loop
      vertex 0.881678 1.21352 0
      vertex 1.46946 2.02254 0
      vertex 1.0037 1.11472 0
    endloop
  endfacet
  facet normal -0 0 -1
    outer loop
      vertex 1.46946 2.02254 0
      vertex 0.881678 1.21352 0
      vertex 1.25 2.16506 0
    endloop
  endfacet
  facet normal 0 0 -1
    outer loop
      vertex 0.75 1.29904 0
      vertex 1.25 2.16506 0
      vertex 0.881678 1.21352 0
    endloop
  endfacet
  facet normal -0 0 -1
    outer loop
      vertex 1.25 2.16506 0
      vertex 0.75 1.29904 0
      vertex 1.01684 2.28386 0
    endloop
  endfacet
  facet normal 0 0 -1
    outer loop
      vertex 0.610105 1.37032 0
      vertex 1.01684 2.28386 0
      vertex 0.75 1.29904 0
    endloop
  endfacet
  facet normal -0 0 -1
    outer loop
      vertex 1.01684 2.28386 0
      vertex 0.610105 1.37032 0
      vertex 0.772542 2.37764 0
    endloop
  endfacet
  facet normal 0 0 -1
    outer loop
      vertex 0.463525 1.42658 0
      vertex 0.772542 2.37764 0
      vertex 0.610105 1.37032 0
    endloop
  endfacet
  facet normal -0 0 -1
    outer loop
      vertex 0.772542 2.37764 0
      vertex 0.463525 1.42658 0
      vertex 0.519779 2.44537 0
    endloop
  endfacet
  facet normal 0 0 -1
    outer loop
      vertex 0.311867 1.46722 0
      vertex 0.519779 2.44537 0
      vertex 0.463525 1.42658 0
    endloop
  endfacet
  facet normal 0 0 -1
    outer loop
      vertex 0.311867 1.46722 0
      vertex 0.261321 2.4863 0
      vertex 0.519779 2.44537 0
    endloop
  endfacet
  facet normal 0 0 -1
    outer loop
      vertex 0.156793 1.49178 0
      vertex 0.261321 2.4863 0
      vertex 0.311867 1.46722 0
    endloop
  endfacet
  facet normal 0 0 -1
    outer loop
      vertex 0 1.5 0
      vertex 0.261321 2.4863 0
      vertex 0.156793 1.49178 0
    endloop
  endfacet
  facet normal 0 0 -1
    outer loop
      vertex 0 1.5 0
      vertex 0 2.5 0
      vertex 0.261321 2.4863 0
    endloop
  endfacet
  facet normal 0 0 -1
    outer loop
      vertex -0.156793 1.49178 0
      vertex 0 2.5 0
      vertex 0 1.5 0
    endloop
  endfacet
  facet normal 0 0 -1
    outer loop
      vertex -0.156793 1.49178 0
      vertex -0.261321 2.4863 0
      vertex 0 2.5 0
    endloop
  endfacet
  facet normal 0 0 -1
    outer loop
      vertex -0.311867 1.46722 0
      vertex -0.261321 2.4863 0
      vertex -0.156793 1.49178 0
    endloop
  endfacet
  facet normal 0 0 -1
    outer loop
      vertex -0.519779 2.44537 0
      vertex -0.311867 1.46722 0
      vertex -0.463525 1.42658 0
    endloop
  endfacet
  facet normal 0 0 -1
    outer loop
      vertex -0.311867 1.46722 0
      vertex -0.519779 2.44537 0
      vertex -0.261321 2.4863 0
    endloop
  endfacet
  facet normal 0 0 -1
    outer loop
      vertex -0.772542 2.37764 0
      vertex -0.463525 1.42658 0
      vertex -0.610105 1.37032 0
    endloop
  endfacet
  facet normal 0 0 -1
    outer loop
      vertex -1.01684 2.28386 0
      vertex -0.610105 1.37032 0
      vertex -0.749999 1.29904 0
    endloop
  endfacet
  facet normal 0 0 -1
    outer loop
      vertex -0.463525 1.42658 0
      vertex -0.772542 2.37764 0
      vertex -0.519779 2.44537 0
    endloop
  endfacet
  facet normal 0 0 -1
    outer loop
      vertex -1.25 2.16506 0
      vertex -0.749999 1.29904 0
      vertex -0.881678 1.21352 0
    endloop
  endfacet
  facet normal 0 0 -1
    outer loop
      vertex -1.46946 2.02254 0
      vertex -0.881678 1.21352 0
      vertex -1.0037 1.11472 0
    endloop
  endfacet
  facet normal 0 0 -1
    outer loop
      vertex -0.610105 1.37032 0
      vertex -1.01684 2.28386 0
      vertex -0.772542 2.37764 0
    endloop
  endfacet
  facet normal 0 0 -1
    outer loop
      vertex -1.67283 1.85786 0
      vertex -1.0037 1.11472 0
      vertex -1.11472 1.0037 0
    endloop
  endfacet
  facet normal 0 0 -1
    outer loop
      vertex -1.85786 1.67283 0
      vertex -1.11472 1.0037 0
      vertex -1.21352 0.881678 0
    endloop
  endfacet
  facet normal 0 0 -1
    outer loop
      vertex -0.749999 1.29904 0
      vertex -1.25 2.16506 0
      vertex -1.01684 2.28386 0
    endloop
  endfacet
  facet normal 0 0 -1
    outer loop
      vertex -2.02254 1.46946 0
      vertex -1.21352 0.881678 0
      vertex -1.29904 0.749999 0
    endloop
  endfacet
  facet normal 0 0 -1
    outer loop
      vertex -2.16506 1.25 0
      vertex -1.29904 0.749999 0
      vertex -1.37032 0.610105 0
    endloop
  endfacet
  facet normal 0 0 -1
    outer loop
      vertex -2.28386 1.01684 0
      vertex -1.37032 0.610105 0
      vertex -1.42658 0.463525 0
    endloop
  endfacet
  facet normal 0 0 -1
    outer loop
      vertex -2.37764 0.772542 0
      vertex -1.42658 0.463525 0
      vertex -1.46722 0.311867 0
    endloop
  endfacet
  facet normal 0 0 -1
    outer loop
      vertex -0.881678 1.21352 0
      vertex -1.46946 2.02254 0
      vertex -1.25 2.16506 0
    endloop
  endfacet
  facet normal 0 0 -1
    outer loop
      vertex -2.44537 0.519779 0
      vertex -1.46722 0.311867 0
      vertex -1.49178 0.156793 0
    endloop
  endfacet
  facet normal 0 0 -1
    outer loop
      vertex -2.4863 0.261321 0
      vertex -1.49178 0.156793 0
      vertex -1.5 0 0
    endloop
  endfacet
  facet normal -0 0 -1
    outer loop
      vertex -1.37032 -0.610105 0
      vertex -2.28386 -1.01684 0
      vertex -1.42658 -0.463525 0
    endloop
  endfacet
  facet normal 0 0 -1
    outer loop
      vertex -1.0037 1.11472 0
      vertex -1.67283 1.85786 0
      vertex -1.46946 2.02254 0
    endloop
  endfacet
  facet normal 0 0 -1
    outer loop
      vertex -2.37764 -0.772542 0
      vertex -1.42658 -0.463525 0
      vertex -2.28386 -1.01684 0
    endloop
  endfacet
  facet normal 0 0 -1
    outer loop
      vertex -1.11472 1.0037 0
      vertex -1.85786 1.67283 0
      vertex -1.67283 1.85786 0
    endloop
  endfacet
  facet normal -0 0 -1
    outer loop
      vertex -1.42658 -0.463525 0
      vertex -2.37764 -0.772542 0
      vertex -1.46722 -0.311867 0
    endloop
  endfacet
  facet normal 0 0 -1
    outer loop
      vertex -1.21352 0.881678 0
      vertex -2.02254 1.46946 0
      vertex -1.85786 1.67283 0
    endloop
  endfacet
  facet normal 0 0 -1
    outer loop
      vertex -2.44537 -0.519779 0
      vertex -1.46722 -0.311867 0
      vertex -2.37764 -0.772542 0
    endloop
  endfacet
  facet normal 0 0 -1
    outer loop
      vertex -1.29904 0.749999 0
      vertex -2.16506 1.25 0
      vertex -2.02254 1.46946 0
    endloop
  endfacet
  facet normal -0 0 -1
    outer loop
      vertex -1.46722 -0.311867 0
      vertex -2.44537 -0.519779 0
      vertex -1.49178 -0.156793 0
    endloop
  endfacet
  facet normal 0 0 -1
    outer loop
      vertex -1.37032 0.610105 0
      vertex -2.28386 1.01684 0
      vertex -2.16506 1.25 0
    endloop
  endfacet
  facet normal 0 0 -1
    outer loop
      vertex -2.4863 -0.261321 0
      vertex -1.49178 -0.156793 0
      vertex -2.44537 -0.519779 0
    endloop
  endfacet
  facet normal 0 0 -1
    outer loop
      vertex -1.42658 0.463525 0
      vertex -2.37764 0.772542 0
      vertex -2.28386 1.01684 0
    endloop
  endfacet
  facet normal -0 0 -1
    outer loop
      vertex -1.49178 -0.156793 0
      vertex -2.4863 -0.261321 0
      vertex -1.5 0 0
    endloop
  endfacet
  facet normal 0 0 -1
    outer loop
      vertex -1.46722 0.311867 0
      vertex -2.44537 0.519779 0
      vertex -2.37764 0.772542 0
    endloop
  endfacet
  facet normal 0 0 -1
    outer loop
      vertex -2.5 0 0
      vertex -1.5 0 0
      vertex -2.4863 -0.261321 0
    endloop
  endfacet
  facet normal 0 0 -1
    outer loop
      vertex -1.49178 0.156793 0
      vertex -2.4863 0.261321 0
      vertex -2.44537 0.519779 0
    endloop
  endfacet
  facet normal 0 0 -1
    outer loop
      vertex -1.5 0 0
      vertex -2.5 0 0
      vertex -2.4863 0.261321 0
    endloop
  endfacet
  facet normal -0.93358 -0.358368 0
    outer loop
      vertex -2.28386 -1.01684 0
      vertex -2.37764 -0.772542 1.55
      vertex -2.37764 -0.772542 0
    endloop
  endfacet
  facet normal -0.93358 -0.358368 0
    outer loop
      vertex -2.37764 -0.772542 1.55
      vertex -2.28386 -1.01684 0
      vertex -2.28386 -1.01684 1.55
    endloop
  endfacet
  facet normal 0.777146 0.62932 0
    outer loop
      vertex 2.02254 1.46946 1.55
      vertex 1.85786 1.67283 0
      vertex 1.85786 1.67283 1.55
    endloop
  endfacet
  facet normal 0.777146 0.62932 0
    outer loop
      vertex 1.85786 1.67283 0
      vertex 2.02254 1.46946 1.55
      vertex 2.02254 1.46946 0
    endloop
  endfacet
  facet normal 0 0 1
    outer loop
      vertex 1.5 0 1.55
      vertex 2.5 0 1.55
      vertex 2.4863 0.261321 1.55
    endloop
  endfacet
  facet normal 0 0 1
    outer loop
      vertex 1.49178 0.156793 1.55
      vertex 2.4863 0.261321 1.55
      vertex 2.44537 0.519779 1.55
    endloop
  endfacet
  facet normal 0 0 1
    outer loop
      vertex 2.5 0 1.55
      vertex 1.5 0 1.55
      vertex 2.4863 -0.261321 1.55
    endloop
  endfacet
  facet normal 0 0 1
    outer loop
      vertex 1.46722 0.311867 1.55
      vertex 2.44537 0.519779 1.55
      vertex 2.37764 0.772542 1.55
    endloop
  endfacet
  facet normal -0 0 1
    outer loop
      vertex 1.49178 -0.156793 1.55
      vertex 2.4863 -0.261321 1.55
      vertex 1.5 0 1.55
    endloop
  endfacet
  facet normal 0 0 1
    outer loop
      vertex 1.42658 0.463525 1.55
      vertex 2.37764 0.772542 1.55
      vertex 2.28386 1.01684 1.55
    endloop
  endfacet
  facet normal 0 0 1
    outer loop
      vertex 2.4863 -0.261321 1.55
      vertex 1.49178 -0.156793 1.55
      vertex 2.44537 -0.519779 1.55
    endloop
  endfacet
  facet normal 0 0 1
    outer loop
      vertex 1.37032 0.610105 1.55
      vertex 2.28386 1.01684 1.55
      vertex 2.16506 1.25 1.55
    endloop
  endfacet
  facet normal -0 0 1
    outer loop
      vertex 1.46722 -0.311867 1.55
      vertex 2.44537 -0.519779 1.55
      vertex 1.49178 -0.156793 1.55
    endloop
  endfacet
  facet normal 0 0 1
    outer loop
      vertex 1.29904 0.749999 1.55
      vertex 2.16506 1.25 1.55
      vertex 2.02254 1.46946 1.55
    endloop
  endfacet
  facet normal 0 0 1
    outer loop
      vertex 2.44537 -0.519779 1.55
      vertex 1.46722 -0.311867 1.55
      vertex 2.37764 -0.772542 1.55
    endloop
  endfacet
  facet normal 0 0 1
    outer loop
      vertex 1.21352 0.881678 1.55
      vertex 2.02254 1.46946 1.55
      vertex 1.85786 1.67283 1.55
    endloop
  endfacet
  facet normal -0 0 1
    outer loop
      vertex 1.42658 -0.463525 1.55
      vertex 2.37764 -0.772542 1.55
      vertex 1.46722 -0.311867 1.55
    endloop
  endfacet
  facet normal 0 0 1
    outer loop
      vertex 1.11472 1.0037 1.55
      vertex 1.85786 1.67283 1.55
      vertex 1.67283 1.85786 1.55
    endloop
  endfacet
  facet normal 0 0 1
    outer loop
      vertex 2.37764 -0.772542 1.55
      vertex 1.42658 -0.463525 1.55
      vertex 2.28386 -1.01684 1.55
    endloop
  endfacet
  facet normal -0 0 1
    outer loop
      vertex 1.37032 -0.610105 1.55
      vertex 2.28386 -1.01684 1.55
      vertex 1.42658 -0.463525 1.55
    endloop
  endfacet
  facet normal 0 0 1
    outer loop
      vertex 2.4863 0.261321 1.55
      vertex 1.49178 0.156793 1.55
      vertex 1.5 0 1.55
    endloop
  endfacet
  facet normal 0 0 1
    outer loop
      vertex 1.0037 1.11472 1.55
      vertex 1.67283 1.85786 1.55
      vertex 1.46946 2.02254 1.55
    endloop
  endfacet
  facet normal 0 0 1
    outer loop
      vertex 2.44537 0.519779 1.55
      vertex 1.46722 0.311867 1.55
      vertex 1.49178 0.156793 1.55
    endloop
  endfacet
  facet normal 0 0 1
    outer loop
      vertex 2.37764 0.772542 1.55
      vertex 1.42658 0.463525 1.55
      vertex 1.46722 0.311867 1.55
    endloop
  endfacet
  facet normal 0 0 1
    outer loop
      vertex 2.28386 1.01684 1.55
      vertex 1.37032 0.610105 1.55
      vertex 1.42658 0.463525 1.55
    endloop
  endfacet
  facet normal 0 0 1
    outer loop
      vertex 2.16506 1.25 1.55
      vertex 1.29904 0.749999 1.55
      vertex 1.37032 0.610105 1.55
    endloop
  endfacet
  facet normal 0 0 1
    outer loop
      vertex 0.881678 1.21352 1.55
      vertex 1.46946 2.02254 1.55
      vertex 1.25 2.16506 1.55
    endloop
  endfacet
  facet normal 0 0 1
    outer loop
      vertex 2.02254 1.46946 1.55
      vertex 1.21352 0.881678 1.55
      vertex 1.29904 0.749999 1.55
    endloop
  endfacet
  facet normal 0 0 1
    outer loop
      vertex 1.85786 1.67283 1.55
      vertex 1.11472 1.0037 1.55
      vertex 1.21352 0.881678 1.55
    endloop
  endfacet
  facet normal 0 0 1
    outer loop
      vertex 0.75 1.29904 1.55
      vertex 1.25 2.16506 1.55
      vertex 1.01684 2.28386 1.55
    endloop
  endfacet
  facet normal 0 0 1
    outer loop
      vertex 1.67283 1.85786 1.55
      vertex 1.0037 1.11472 1.55
      vertex 1.11472 1.0037 1.55
    endloop
  endfacet
  facet normal 0 0 1
    outer loop
      vertex 1.46946 2.02254 1.55
      vertex 0.881678 1.21352 1.55
      vertex 1.0037 1.11472 1.55
    endloop
  endfacet
  facet normal 0 0 1
    outer loop
      vertex 0.610105 1.37032 1.55
      vertex 1.01684 2.28386 1.55
      vertex 0.772542 2.37764 1.55
    endloop
  endfacet
  facet normal 0 0 1
    outer loop
      vertex 1.25 2.16506 1.55
      vertex 0.75 1.29904 1.55
      vertex 0.881678 1.21352 1.55
    endloop
  endfacet
  facet normal 0 0 1
    outer loop
      vertex 1.01684 2.28386 1.55
      vertex 0.610105 1.37032 1.55
      vertex 0.75 1.29904 1.55
    endloop
  endfacet
  facet normal 0 0 1
    outer loop
      vertex 0.463525 1.42658 1.55
      vertex 0.772542 2.37764 1.55
      vertex 0.519779 2.44537 1.55
    endloop
  endfacet
  facet normal 0 0 1
    outer loop
      vertex 0.772542 2.37764 1.55
      vertex 0.463525 1.42658 1.55
      vertex 0.610105 1.37032 1.55
    endloop
  endfacet
  facet normal 0 0 1
    outer loop
      vertex 0.519779 2.44537 1.55
      vertex 0.311867 1.46722 1.55
      vertex 0.463525 1.42658 1.55
    endloop
  endfacet
  facet normal 0 0 1
    outer loop
      vertex 0.261321 2.4863 1.55
      vertex 0.311867 1.46722 1.55
      vertex 0.519779 2.44537 1.55
    endloop
  endfacet
  facet normal 0 0 1
    outer loop
      vertex 0.261321 2.4863 1.55
      vertex 0.156793 1.49178 1.55
      vertex 0.311867 1.46722 1.55
    endloop
  endfacet
  facet normal 0 0 1
    outer loop
      vertex 0 2.5 1.55
      vertex 0.156793 1.49178 1.55
      vertex 0.261321 2.4863 1.55
    endloop
  endfacet
  facet normal 0 0 1
    outer loop
      vertex 0 2.5 1.55
      vertex 0 1.5 1.55
      vertex 0.156793 1.49178 1.55
    endloop
  endfacet
  facet normal 0 0 1
    outer loop
      vertex 0 2.5 1.55
      vertex -0.156793 1.49178 1.55
      vertex 0 1.5 1.55
    endloop
  endfacet
  facet normal -0 0 1
    outer loop
      vertex -0.261321 2.4863 1.55
      vertex -0.156793 1.49178 1.55
      vertex 0 2.5 1.55
    endloop
  endfacet
  facet normal 0 0 1
    outer loop
      vertex -0.261321 2.4863 1.55
      vertex -0.311867 1.46722 1.55
      vertex -0.156793 1.49178 1.55
    endloop
  endfacet
  facet normal -0 0 1
    outer loop
      vertex -0.519779 2.44537 1.55
      vertex -0.311867 1.46722 1.55
      vertex -0.261321 2.4863 1.55
    endloop
  endfacet
  facet normal 0 0 1
    outer loop
      vertex -0.311867 1.46722 1.55
      vertex -0.519779 2.44537 1.55
      vertex -0.463525 1.42658 1.55
    endloop
  endfacet
  facet normal -0 0 1
    outer loop
      vertex -0.772542 2.37764 1.55
      vertex -0.463525 1.42658 1.55
      vertex -0.519779 2.44537 1.55
    endloop
  endfacet
  facet normal 0 0 1
    outer loop
      vertex -0.463525 1.42658 1.55
      vertex -0.772542 2.37764 1.55
      vertex -0.610105 1.37032 1.55
    endloop
  endfacet
  facet normal -0 0 1
    outer loop
      vertex -1.01684 2.28386 1.55
      vertex -0.610105 1.37032 1.55
      vertex -0.772542 2.37764 1.55
    endloop
  endfacet
  facet normal 0 0 1
    outer loop
      vertex -0.610105 1.37032 1.55
      vertex -1.01684 2.28386 1.55
      vertex -0.749999 1.29904 1.55
    endloop
  endfacet
  facet normal -0 0 1
    outer loop
      vertex -1.25 2.16506 1.55
      vertex -0.749999 1.29904 1.55
      vertex -1.01684 2.28386 1.55
    endloop
  endfacet
  facet normal 0 0 1
    outer loop
      vertex -0.749999 1.29904 1.55
      vertex -1.25 2.16506 1.55
      vertex -0.881678 1.21352 1.55
    endloop
  endfacet
  facet normal -0 0 1
    outer loop
      vertex -1.46946 2.02254 1.55
      vertex -0.881678 1.21352 1.55
      vertex -1.25 2.16506 1.55
    endloop
  endfacet
  facet normal 0 0 1
    outer loop
      vertex -0.881678 1.21352 1.55
      vertex -1.46946 2.02254 1.55
      vertex -1.0037 1.11472 1.55
    endloop
  endfacet
  facet normal -0 0 1
    outer loop
      vertex -1.67283 1.85786 1.55
      vertex -1.0037 1.11472 1.55
      vertex -1.46946 2.02254 1.55
    endloop
  endfacet
  facet normal 0 0 1
    outer loop
      vertex -1.0037 1.11472 1.55
      vertex -1.67283 1.85786 1.55
      vertex -1.11472 1.0037 1.55
    endloop
  endfacet
  facet normal -0 0 1
    outer loop
      vertex -1.85786 1.67283 1.55
      vertex -1.11472 1.0037 1.55
      vertex -1.67283 1.85786 1.55
    endloop
  endfacet
  facet normal 0 0 1
    outer loop
      vertex -1.11472 1.0037 1.55
      vertex -1.85786 1.67283 1.55
      vertex -1.21352 0.881678 1.55
    endloop
  endfacet
  facet normal -0 0 1
    outer loop
      vertex -2.02254 1.46946 1.55
      vertex -1.21352 0.881678 1.55
      vertex -1.85786 1.67283 1.55
    endloop
  endfacet
  facet normal 0 0 1
    outer loop
      vertex -1.21352 0.881678 1.55
      vertex -2.02254 1.46946 1.55
      vertex -1.29904 0.749999 1.55
    endloop
  endfacet
  facet normal -0 0 1
    outer loop
      vertex -2.16506 1.25 1.55
      vertex -1.29904 0.749999 1.55
      vertex -2.02254 1.46946 1.55
    endloop
  endfacet
  facet normal 0 0 1
    outer loop
      vertex -1.29904 0.749999 1.55
      vertex -2.16506 1.25 1.55
      vertex -1.37032 0.610105 1.55
    endloop
  endfacet
  facet normal -0 0 1
    outer loop
      vertex -2.28386 1.01684 1.55
      vertex -1.37032 0.610105 1.55
      vertex -2.16506 1.25 1.55
    endloop
  endfacet
  facet normal 0 0 1
    outer loop
      vertex 2.28386 -1.01684 1.55
      vertex 1.37032 -0.610105 1.55
      vertex 2.16506 -1.25 1.55
    endloop
  endfacet
  facet normal -0 0 1
    outer loop
      vertex 1.29904 -0.749999 1.55
      vertex 2.16506 -1.25 1.55
      vertex 1.37032 -0.610105 1.55
    endloop
  endfacet
  facet normal 0 0 1
    outer loop
      vertex 2.16506 -1.25 1.55
      vertex 1.29904 -0.749999 1.55
      vertex 2.02254 -1.46946 1.55
    endloop
  endfacet
  facet normal -0 0 1
    outer loop
      vertex 1.21352 -0.881678 1.55
      vertex 2.02254 -1.46946 1.55
      vertex 1.29904 -0.749999 1.55
    endloop
  endfacet
  facet normal 0 0 1
    outer loop
      vertex 2.02254 -1.46946 1.55
      vertex 1.21352 -0.881678 1.55
      vertex 1.85786 -1.67283 1.55
    endloop
  endfacet
  facet normal -0 0 1
    outer loop
      vertex 1.11472 -1.0037 1.55
      vertex 1.85786 -1.67283 1.55
      vertex 1.21352 -0.881678 1.55
    endloop
  endfacet
  facet normal 0 0 1
    outer loop
      vertex 1.85786 -1.67283 1.55
      vertex 1.11472 -1.0037 1.55
      vertex 1.67283 -1.85786 1.55
    endloop
  endfacet
  facet normal -0 0 1
    outer loop
      vertex 1.0037 -1.11472 1.55
      vertex 1.67283 -1.85786 1.55
      vertex 1.11472 -1.0037 1.55
    endloop
  endfacet
  facet normal 0 0 1
    outer loop
      vertex 1.67283 -1.85786 1.55
      vertex 1.0037 -1.11472 1.55
      vertex 1.46946 -2.02254 1.55
    endloop
  endfacet
  facet normal -0 0 1
    outer loop
      vertex 0.881678 -1.21352 1.55
      vertex 1.46946 -2.02254 1.55
      vertex 1.0037 -1.11472 1.55
    endloop
  endfacet
  facet normal 0 0 1
    outer loop
      vertex 1.46946 -2.02254 1.55
      vertex 0.881678 -1.21352 1.55
      vertex 1.25 -2.16506 1.55
    endloop
  endfacet
  facet normal -0 0 1
    outer loop
      vertex 0.75 -1.29904 1.55
      vertex 1.25 -2.16506 1.55
      vertex 0.881678 -1.21352 1.55
    endloop
  endfacet
  facet normal 0 0 1
    outer loop
      vertex 1.25 -2.16506 1.55
      vertex 0.75 -1.29904 1.55
      vertex 1.01684 -2.28386 1.55
    endloop
  endfacet
  facet normal -0 0 1
    outer loop
      vertex 0.610105 -1.37032 1.55
      vertex 1.01684 -2.28386 1.55
      vertex 0.75 -1.29904 1.55
    endloop
  endfacet
  facet normal 0 0 1
    outer loop
      vertex 1.01684 -2.28386 1.55
      vertex 0.610105 -1.37032 1.55
      vertex 0.772542 -2.37764 1.55
    endloop
  endfacet
  facet normal -0 0 1
    outer loop
      vertex 0.463525 -1.42658 1.55
      vertex 0.772542 -2.37764 1.55
      vertex 0.610105 -1.37032 1.55
    endloop
  endfacet
  facet normal 0 0 1
    outer loop
      vertex 0.772542 -2.37764 1.55
      vertex 0.463525 -1.42658 1.55
      vertex 0.519779 -2.44537 1.55
    endloop
  endfacet
  facet normal -0 0 1
    outer loop
      vertex 0.311867 -1.46722 1.55
      vertex 0.519779 -2.44537 1.55
      vertex 0.463525 -1.42658 1.55
    endloop
  endfacet
  facet normal 0 0 1
    outer loop
      vertex 0.311867 -1.46722 1.55
      vertex 0.261321 -2.4863 1.55
      vertex 0.519779 -2.44537 1.55
    endloop
  endfacet
  facet normal -0 0 1
    outer loop
      vertex 0.156793 -1.49178 1.55
      vertex 0.261321 -2.4863 1.55
      vertex 0.311867 -1.46722 1.55
    endloop
  endfacet
  facet normal -0 0 1
    outer loop
      vertex 0 -1.5 1.55
      vertex 0.261321 -2.4863 1.55
      vertex 0.156793 -1.49178 1.55
    endloop
  endfacet
  facet normal 0 0 1
    outer loop
      vertex 0 -1.5 1.55
      vertex 0 -2.5 1.55
      vertex 0.261321 -2.4863 1.55
    endloop
  endfacet
  facet normal 0 0 1
    outer loop
      vertex -0.156793 -1.49178 1.55
      vertex 0 -2.5 1.55
      vertex 0 -1.5 1.55
    endloop
  endfacet
  facet normal 0 0 1
    outer loop
      vertex -0.156793 -1.49178 1.55
      vertex -0.261321 -2.4863 1.55
      vertex 0 -2.5 1.55
    endloop
  endfacet
  facet normal 0 0 1
    outer loop
      vertex -0.311867 -1.46722 1.55
      vertex -0.261321 -2.4863 1.55
      vertex -0.156793 -1.49178 1.55
    endloop
  endfacet
  facet normal 0 0 1
    outer loop
      vertex -0.519779 -2.44537 1.55
      vertex -0.311867 -1.46722 1.55
      vertex -0.463525 -1.42658 1.55
    endloop
  endfacet
  facet normal 0 0 1
    outer loop
      vertex -0.311867 -1.46722 1.55
      vertex -0.519779 -2.44537 1.55
      vertex -0.261321 -2.4863 1.55
    endloop
  endfacet
  facet normal 0 0 1
    outer loop
      vertex -0.772542 -2.37764 1.55
      vertex -0.463525 -1.42658 1.55
      vertex -0.610105 -1.37032 1.55
    endloop
  endfacet
  facet normal 0 0 1
    outer loop
      vertex -1.01684 -2.28386 1.55
      vertex -0.610105 -1.37032 1.55
      vertex -0.75 -1.29904 1.55
    endloop
  endfacet
  facet normal 0 0 1
    outer loop
      vertex -0.463525 -1.42658 1.55
      vertex -0.772542 -2.37764 1.55
      vertex -0.519779 -2.44537 1.55
    endloop
  endfacet
  facet normal 0 0 1
    outer loop
      vertex -1.25 -2.16506 1.55
      vertex -0.75 -1.29904 1.55
      vertex -0.881678 -1.21352 1.55
    endloop
  endfacet
  facet normal 0 0 1
    outer loop
      vertex -1.46946 -2.02254 1.55
      vertex -0.881678 -1.21352 1.55
      vertex -1.0037 -1.11472 1.55
    endloop
  endfacet
  facet normal 0 0 1
    outer loop
      vertex -0.610105 -1.37032 1.55
      vertex -1.01684 -2.28386 1.55
      vertex -0.772542 -2.37764 1.55
    endloop
  endfacet
  facet normal 0 0 1
    outer loop
      vertex -1.67283 -1.85786 1.55
      vertex -1.0037 -1.11472 1.55
      vertex -1.11472 -1.0037 1.55
    endloop
  endfacet
  facet normal 0 0 1
    outer loop
      vertex -1.85786 -1.67283 1.55
      vertex -1.11472 -1.0037 1.55
      vertex -1.21352 -0.881678 1.55
    endloop
  endfacet
  facet normal 0 0 1
    outer loop
      vertex -0.75 -1.29904 1.55
      vertex -1.25 -2.16506 1.55
      vertex -1.01684 -2.28386 1.55
    endloop
  endfacet
  facet normal 0 0 1
    outer loop
      vertex -2.02254 -1.46946 1.55
      vertex -1.21352 -0.881678 1.55
      vertex -1.29904 -0.749999 1.55
    endloop
  endfacet
  facet normal 0 0 1
    outer loop
      vertex -2.16506 -1.25 1.55
      vertex -1.29904 -0.749999 1.55
      vertex -1.37032 -0.610105 1.55
    endloop
  endfacet
  facet normal 0 0 1
    outer loop
      vertex -2.28386 -1.01684 1.55
      vertex -1.37032 -0.610105 1.55
      vertex -1.42658 -0.463525 1.55
    endloop
  endfacet
  facet normal 0 0 1
    outer loop
      vertex -2.37764 -0.772542 1.55
      vertex -1.42658 -0.463525 1.55
      vertex -1.46722 -0.311867 1.55
    endloop
  endfacet
  facet normal 0 0 1
    outer loop
      vertex -0.881678 -1.21352 1.55
      vertex -1.46946 -2.02254 1.55
      vertex -1.25 -2.16506 1.55
    endloop
  endfacet
  facet normal 0 0 1
    outer loop
      vertex -2.44537 -0.519779 1.55
      vertex -1.46722 -0.311867 1.55
      vertex -1.49178 -0.156793 1.55
    endloop
  endfacet
  facet normal 0 0 1
    outer loop
      vertex -2.4863 -0.261321 1.55
      vertex -1.49178 -0.156793 1.55
      vertex -1.5 0 1.55
    endloop
  endfacet
  facet normal 0 0 1
    outer loop
      vertex -1.37032 0.610105 1.55
      vertex -2.28386 1.01684 1.55
      vertex -1.42658 0.463525 1.55
    endloop
  endfacet
  facet normal 0 0 1
    outer loop
      vertex -1.0037 -1.11472 1.55
      vertex -1.67283 -1.85786 1.55
      vertex -1.46946 -2.02254 1.55
    endloop
  endfacet
  facet normal -0 0 1
    outer loop
      vertex -2.37764 0.772542 1.55
      vertex -1.42658 0.463525 1.55
      vertex -2.28386 1.01684 1.55
    endloop
  endfacet
  facet normal 0 0 1
    outer loop
      vertex -1.11472 -1.0037 1.55
      vertex -1.85786 -1.67283 1.55
      vertex -1.67283 -1.85786 1.55
    endloop
  endfacet
  facet normal 0 0 1
    outer loop
      vertex -1.42658 0.463525 1.55
      vertex -2.37764 0.772542 1.55
      vertex -1.46722 0.311867 1.55
    endloop
  endfacet
  facet normal 0 0 1
    outer loop
      vertex -1.21352 -0.881678 1.55
      vertex -2.02254 -1.46946 1.55
      vertex -1.85786 -1.67283 1.55
    endloop
  endfacet
  facet normal -0 0 1
    outer loop
      vertex -2.44537 0.519779 1.55
      vertex -1.46722 0.311867 1.55
      vertex -2.37764 0.772542 1.55
    endloop
  endfacet
  facet normal 0 0 1
    outer loop
      vertex -1.29904 -0.749999 1.55
      vertex -2.16506 -1.25 1.55
      vertex -2.02254 -1.46946 1.55
    endloop
  endfacet
  facet normal 0 0 1
    outer loop
      vertex -1.46722 0.311867 1.55
      vertex -2.44537 0.519779 1.55
      vertex -1.49178 0.156793 1.55
    endloop
  endfacet
  facet normal 0 0 1
    outer loop
      vertex -1.37032 -0.610105 1.55
      vertex -2.28386 -1.01684 1.55
      vertex -2.16506 -1.25 1.55
    endloop
  endfacet
  facet normal -0 0 1
    outer loop
      vertex -2.4863 0.261321 1.55
      vertex -1.49178 0.156793 1.55
      vertex -2.44537 0.519779 1.55
    endloop
  endfacet
  facet normal 0 0 1
    outer loop
      vertex -1.42658 -0.463525 1.55
      vertex -2.37764 -0.772542 1.55
      vertex -2.28386 -1.01684 1.55
    endloop
  endfacet
  facet normal 0 0 1
    outer loop
      vertex -1.49178 0.156793 1.55
      vertex -2.4863 0.261321 1.55
      vertex -1.5 0 1.55
    endloop
  endfacet
  facet normal 0 0 1
    outer loop
      vertex -1.46722 -0.311867 1.55
      vertex -2.44537 -0.519779 1.55
      vertex -2.37764 -0.772542 1.55
    endloop
  endfacet
  facet normal 0 0 1
    outer loop
      vertex -2.5 0 1.55
      vertex -1.5 0 1.55
      vertex -2.4863 0.261321 1.55
    endloop
  endfacet
  facet normal 0 0 1
    outer loop
      vertex -1.49178 -0.156793 1.55
      vertex -2.4863 -0.261321 1.55
      vertex -2.44537 -0.519779 1.55
    endloop
  endfacet
  facet normal 0 0 1
    outer loop
      vertex -1.5 0 1.55
      vertex -2.5 0 1.55
      vertex -2.4863 -0.261321 1.55
    endloop
  endfacet
  facet normal -0.258821 0.965925 0
    outer loop
      vertex -0.519779 2.44537 0
      vertex -0.772542 2.37764 1.55
      vertex -0.519779 2.44537 1.55
    endloop
  endfacet
  facet normal -0.258821 0.965925 0
    outer loop
      vertex -0.772542 2.37764 1.55
      vertex -0.519779 2.44537 0
      vertex -0.772542 2.37764 0
    endloop
  endfacet
  facet normal 0.358368 -0.93358 0
    outer loop
      vertex 0.772542 -2.37764 0
      vertex 1.01684 -2.28386 1.55
      vertex 0.772542 -2.37764 1.55
    endloop
  endfacet
  facet normal 0.358368 -0.93358 0
    outer loop
      vertex 1.01684 -2.28386 1.55
      vertex 0.772542 -2.37764 0
      vertex 1.01684 -2.28386 0
    endloop
  endfacet
  facet normal 0.54464 -0.83867 0
    outer loop
      vertex 1.25 -2.16506 0
      vertex 1.46946 -2.02254 1.55
      vertex 1.25 -2.16506 1.55
    endloop
  endfacet
  facet normal 0.54464 -0.83867 0
    outer loop
      vertex 1.46946 -2.02254 1.55
      vertex 1.25 -2.16506 0
      vertex 1.46946 -2.02254 0
    endloop
  endfacet
  facet normal 0.93358 -0.358368 0
    outer loop
      vertex 2.28386 -1.01684 1.55
      vertex 2.37764 -0.772542 0
      vertex 2.37764 -0.772542 1.55
    endloop
  endfacet
  facet normal 0.93358 -0.358368 0
    outer loop
      vertex 2.37764 -0.772542 0
      vertex 2.28386 -1.01684 1.55
      vertex 2.28386 -1.01684 0
    endloop
  endfacet
  facet normal 0.987688 -0.156434 0
    outer loop
      vertex 2.44537 -0.519779 1.55
      vertex 2.4863 -0.261321 0
      vertex 2.4863 -0.261321 1.55
    endloop
  endfacet
  facet normal 0.987688 -0.156434 0
    outer loop
      vertex 2.4863 -0.261321 0
      vertex 2.44537 -0.519779 1.55
      vertex 2.44537 -0.519779 0
    endloop
  endfacet
  facet normal 0.998629 -0.0523377 0
    outer loop
      vertex 2.4863 -0.261321 1.55
      vertex 2.5 0 0
      vertex 2.5 0 1.55
    endloop
  endfacet
  facet normal 0.998629 -0.0523377 0
    outer loop
      vertex 2.5 0 0
      vertex 2.4863 -0.261321 1.55
      vertex 2.4863 -0.261321 0
    endloop
  endfacet
  facet normal -0.258821 -0.965925 0
    outer loop
      vertex -0.772542 -2.37764 0
      vertex -0.519779 -2.44537 1.55
      vertex -0.772542 -2.37764 1.55
    endloop
  endfacet
  facet normal -0.258821 -0.965925 -0
    outer loop
      vertex -0.519779 -2.44537 1.55
      vertex -0.772542 -2.37764 0
      vertex -0.519779 -2.44537 0
    endloop
  endfacet
  facet normal -0.45399 -0.891007 0
    outer loop
      vertex -1.25 -2.16506 0
      vertex -1.01684 -2.28386 1.55
      vertex -1.25 -2.16506 1.55
    endloop
  endfacet
  facet normal -0.45399 -0.891007 -0
    outer loop
      vertex -1.01684 -2.28386 1.55
      vertex -1.25 -2.16506 0
      vertex -1.01684 -2.28386 0
    endloop
  endfacet
  facet normal -0.838671 -0.544638 0
    outer loop
      vertex -2.02254 -1.46946 0
      vertex -2.16506 -1.25 1.55
      vertex -2.16506 -1.25 0
    endloop
  endfacet
  facet normal -0.838671 -0.544638 0
    outer loop
      vertex -2.16506 -1.25 1.55
      vertex -2.02254 -1.46946 0
      vertex -2.02254 -1.46946 1.55
    endloop
  endfacet
  facet normal -0.987688 -0.156434 0
    outer loop
      vertex -2.44537 -0.519779 0
      vertex -2.4863 -0.261321 1.55
      vertex -2.4863 -0.261321 0
    endloop
  endfacet
  facet normal -0.987688 -0.156434 0
    outer loop
      vertex -2.4863 -0.261321 1.55
      vertex -2.44537 -0.519779 0
      vertex -2.44537 -0.519779 1.55
    endloop
  endfacet
  facet normal -0.965925 -0.258821 0
    outer loop
      vertex 1.46722 0.311867 0
      vertex 1.42658 0.463525 1.55
      vertex 1.42658 0.463525 0
    endloop
  endfacet
  facet normal -0.965925 -0.258821 0
    outer loop
      vertex 1.42658 0.463525 1.55
      vertex 1.46722 0.311867 0
      vertex 1.46722 0.311867 1.55
    endloop
  endfacet
  facet normal -0.998629 -0.0523401 0
    outer loop
      vertex 1.5 0 0
      vertex 1.49178 0.156793 1.55
      vertex 1.49178 0.156793 0
    endloop
  endfacet
  facet normal -0.998629 -0.0523401 0
    outer loop
      vertex 1.49178 0.156793 1.55
      vertex 1.5 0 0
      vertex 1.5 0 1.55
    endloop
  endfacet
  facet normal 0.998629 -0.0523401 0
    outer loop
      vertex -1.5 0 1.55
      vertex -1.49178 0.156793 0
      vertex -1.49178 0.156793 1.55
    endloop
  endfacet
  facet normal 0.998629 -0.0523401 0
    outer loop
      vertex -1.49178 0.156793 0
      vertex -1.5 0 1.55
      vertex -1.5 0 0
    endloop
  endfacet
  facet normal -0.0523401 -0.998629 0
    outer loop
      vertex 0 1.5 0
      vertex 0.156793 1.49178 1.55
      vertex 0 1.5 1.55
    endloop
  endfacet
  facet normal -0.0523401 -0.998629 -0
    outer loop
      vertex 0.156793 1.49178 1.55
      vertex 0 1.5 0
      vertex 0.156793 1.49178 0
    endloop
  endfacet
  facet normal -0.707107 -0.707107 0
    outer loop
      vertex 1.11472 1.0037 0
      vertex 1.0037 1.11472 1.55
      vertex 1.0037 1.11472 0
    endloop
  endfacet
  facet normal -0.707107 -0.707107 0
    outer loop
      vertex 1.0037 1.11472 1.55
      vertex 1.11472 1.0037 0
      vertex 1.11472 1.0037 1.55
    endloop
  endfacet
  facet normal 0.629321 -0.777145 0
    outer loop
      vertex -1.0037 1.11472 0
      vertex -0.881678 1.21352 1.55
      vertex -1.0037 1.11472 1.55
    endloop
  endfacet
  facet normal 0.629321 -0.777145 0
    outer loop
      vertex -0.881678 1.21352 1.55
      vertex -1.0037 1.11472 0
      vertex -0.881678 1.21352 0
    endloop
  endfacet
  facet normal 0.358368 -0.93358 0
    outer loop
      vertex -0.610105 1.37032 0
      vertex -0.463525 1.42658 1.55
      vertex -0.610105 1.37032 1.55
    endloop
  endfacet
  facet normal 0.358368 -0.93358 0
    outer loop
      vertex -0.463525 1.42658 1.55
      vertex -0.610105 1.37032 0
      vertex -0.463525 1.42658 0
    endloop
  endfacet
  facet normal 0.83867 0.544639 0
    outer loop
      vertex -1.21352 -0.881678 1.55
      vertex -1.29904 -0.749999 0
      vertex -1.29904 -0.749999 1.55
    endloop
  endfacet
  facet normal 0.83867 0.544639 0
    outer loop
      vertex -1.29904 -0.749999 0
      vertex -1.21352 -0.881678 1.55
      vertex -1.21352 -0.881678 0
    endloop
  endfacet
  facet normal -0.93358 -0.358368 0
    outer loop
      vertex 1.42658 0.463525 0
      vertex 1.37032 0.610105 1.55
      vertex 1.37032 0.610105 0
    endloop
  endfacet
  facet normal -0.93358 -0.358368 0
    outer loop
      vertex 1.37032 0.610105 1.55
      vertex 1.42658 0.463525 0
      vertex 1.42658 0.463525 1.55
    endloop
  endfacet
  facet normal -0.83867 -0.544639 0
    outer loop
      vertex 1.29904 0.749999 0
      vertex 1.21352 0.881678 1.55
      vertex 1.21352 0.881678 0
    endloop
  endfacet
  facet normal -0.83867 -0.544639 0
    outer loop
      vertex 1.21352 0.881678 1.55
      vertex 1.29904 0.749999 0
      vertex 1.29904 0.749999 1.55
    endloop
  endfacet
  facet normal -0.453987 -0.891008 0
    outer loop
      vertex 0.610105 1.37032 0
      vertex 0.75 1.29904 1.55
      vertex 0.610105 1.37032 1.55
    endloop
  endfacet
  facet normal -0.453987 -0.891008 -0
    outer loop
      vertex 0.75 1.29904 1.55
      vertex 0.610105 1.37032 0
      vertex 0.75 1.29904 0
    endloop
  endfacet
  facet normal -0.629321 -0.777145 0
    outer loop
      vertex 0.881678 1.21352 0
      vertex 1.0037 1.11472 1.55
      vertex 0.881678 1.21352 1.55
    endloop
  endfacet
  facet normal -0.629321 -0.777145 -0
    outer loop
      vertex 1.0037 1.11472 1.55
      vertex 0.881678 1.21352 0
      vertex 1.0037 1.11472 0
    endloop
  endfacet
  facet normal 0.83867 -0.544639 0
    outer loop
      vertex -1.29904 0.749999 1.55
      vertex -1.21352 0.881678 0
      vertex -1.21352 0.881678 1.55
    endloop
  endfacet
  facet normal 0.83867 -0.544639 0
    outer loop
      vertex -1.21352 0.881678 0
      vertex -1.29904 0.749999 1.55
      vertex -1.29904 0.749999 0
    endloop
  endfacet
  facet normal 0.777145 -0.629321 0
    outer loop
      vertex -1.21352 0.881678 1.55
      vertex -1.11472 1.0037 0
      vertex -1.11472 1.0037 1.55
    endloop
  endfacet
  facet normal 0.777145 -0.629321 0
    outer loop
      vertex -1.11472 1.0037 0
      vertex -1.21352 0.881678 1.55
      vertex -1.21352 0.881678 0
    endloop
  endfacet
  facet normal 0.453989 -0.891007 0
    outer loop
      vertex -0.749999 1.29904 0
      vertex -0.610105 1.37032 1.55
      vertex -0.749999 1.29904 1.55
    endloop
  endfacet
  facet normal 0.453989 -0.891007 0
    outer loop
      vertex -0.610105 1.37032 1.55
      vertex -0.749999 1.29904 0
      vertex -0.610105 1.37032 0
    endloop
  endfacet
  facet normal -0.891007 0.453989 0
    outer loop
      vertex 1.29904 -0.749999 0
      vertex 1.37032 -0.610105 1.55
      vertex 1.37032 -0.610105 0
    endloop
  endfacet
  facet normal -0.891007 0.453989 0
    outer loop
      vertex 1.37032 -0.610105 1.55
      vertex 1.29904 -0.749999 0
      vertex 1.29904 -0.749999 1.55
    endloop
  endfacet
  facet normal -0.258821 0.965925 0
    outer loop
      vertex 0.463525 -1.42658 0
      vertex 0.311867 -1.46722 1.55
      vertex 0.463525 -1.42658 1.55
    endloop
  endfacet
  facet normal -0.258821 0.965925 0
    outer loop
      vertex 0.311867 -1.46722 1.55
      vertex 0.463525 -1.42658 0
      vertex 0.311867 -1.46722 0
    endloop
  endfacet
  facet normal -0.707107 0.707107 0
    outer loop
      vertex 1.0037 -1.11472 0
      vertex 1.11472 -1.0037 1.55
      vertex 1.11472 -1.0037 0
    endloop
  endfacet
  facet normal -0.707107 0.707107 0
    outer loop
      vertex 1.11472 -1.0037 1.55
      vertex 1.0037 -1.11472 0
      vertex 1.0037 -1.11472 1.55
    endloop
  endfacet
  facet normal -0.965925 0.258821 0
    outer loop
      vertex 1.42658 -0.463525 0
      vertex 1.46722 -0.311867 1.55
      vertex 1.46722 -0.311867 0
    endloop
  endfacet
  facet normal -0.965925 0.258821 0
    outer loop
      vertex 1.46722 -0.311867 1.55
      vertex 1.42658 -0.463525 0
      vertex 1.42658 -0.463525 1.55
    endloop
  endfacet
  facet normal 0.358368 0.93358 -0
    outer loop
      vertex -0.463525 -1.42658 0
      vertex -0.610105 -1.37032 1.55
      vertex -0.463525 -1.42658 1.55
    endloop
  endfacet
  facet normal 0.358368 0.93358 0
    outer loop
      vertex -0.610105 -1.37032 1.55
      vertex -0.463525 -1.42658 0
      vertex -0.610105 -1.37032 0
    endloop
  endfacet
  facet normal 0.544642 0.838669 -0
    outer loop
      vertex -0.75 -1.29904 0
      vertex -0.881678 -1.21352 1.55
      vertex -0.75 -1.29904 1.55
    endloop
  endfacet
  facet normal 0.544642 0.838669 0
    outer loop
      vertex -0.881678 -1.21352 1.55
      vertex -0.75 -1.29904 0
      vertex -0.881678 -1.21352 0
    endloop
  endfacet
  facet normal 0.891007 0.453989 0
    outer loop
      vertex -1.29904 -0.749999 1.55
      vertex -1.37032 -0.610105 0
      vertex -1.37032 -0.610105 1.55
    endloop
  endfacet
  facet normal 0.891007 0.453989 0
    outer loop
      vertex -1.37032 -0.610105 0
      vertex -1.29904 -0.749999 1.55
      vertex -1.29904 -0.749999 0
    endloop
  endfacet
  facet normal -0.891007 -0.453989 0
    outer loop
      vertex 1.37032 0.610105 0
      vertex 1.29904 0.749999 1.55
      vertex 1.29904 0.749999 0
    endloop
  endfacet
  facet normal -0.891007 -0.453989 0
    outer loop
      vertex 1.29904 0.749999 1.55
      vertex 1.37032 0.610105 0
      vertex 1.37032 0.610105 1.55
    endloop
  endfacet
  facet normal -0.777145 -0.629321 0
    outer loop
      vertex 1.21352 0.881678 0
      vertex 1.11472 1.0037 1.55
      vertex 1.11472 1.0037 0
    endloop
  endfacet
  facet normal -0.777145 -0.629321 0
    outer loop
      vertex 1.11472 1.0037 1.55
      vertex 1.21352 0.881678 0
      vertex 1.21352 0.881678 1.55
    endloop
  endfacet
  facet normal -0.358368 -0.93358 0
    outer loop
      vertex 0.463525 1.42658 0
      vertex 0.610105 1.37032 1.55
      vertex 0.463525 1.42658 1.55
    endloop
  endfacet
  facet normal -0.358368 -0.93358 -0
    outer loop
      vertex 0.610105 1.37032 1.55
      vertex 0.463525 1.42658 0
      vertex 0.610105 1.37032 0
    endloop
  endfacet
  facet normal -0.258821 -0.965925 0
    outer loop
      vertex 0.311867 1.46722 0
      vertex 0.463525 1.42658 1.55
      vertex 0.311867 1.46722 1.55
    endloop
  endfacet
  facet normal -0.258821 -0.965925 -0
    outer loop
      vertex 0.463525 1.42658 1.55
      vertex 0.311867 1.46722 0
      vertex 0.463525 1.42658 0
    endloop
  endfacet
  facet normal -0.544642 -0.838669 0
    outer loop
      vertex 0.75 1.29904 0
      vertex 0.881678 1.21352 1.55
      vertex 0.75 1.29904 1.55
    endloop
  endfacet
  facet normal -0.544642 -0.838669 -0
    outer loop
      vertex 0.881678 1.21352 1.55
      vertex 0.75 1.29904 0
      vertex 0.881678 1.21352 0
    endloop
  endfacet
  facet normal 0.891007 -0.453989 0
    outer loop
      vertex -1.37032 0.610105 1.55
      vertex -1.29904 0.749999 0
      vertex -1.29904 0.749999 1.55
    endloop
  endfacet
  facet normal 0.891007 -0.453989 0
    outer loop
      vertex -1.29904 0.749999 0
      vertex -1.37032 0.610105 1.55
      vertex -1.37032 0.610105 0
    endloop
  endfacet
  facet normal 0.965925 -0.258821 0
    outer loop
      vertex -1.46722 0.311867 1.55
      vertex -1.42658 0.463525 0
      vertex -1.42658 0.463525 1.55
    endloop
  endfacet
  facet normal 0.965925 -0.258821 0
    outer loop
      vertex -1.42658 0.463525 0
      vertex -1.46722 0.311867 1.55
      vertex -1.46722 0.311867 0
    endloop
  endfacet
  facet normal 0.544639 -0.83867 0
    outer loop
      vertex -0.881678 1.21352 0
      vertex -0.749999 1.29904 1.55
      vertex -0.881678 1.21352 1.55
    endloop
  endfacet
  facet normal 0.544639 -0.83867 0
    outer loop
      vertex -0.749999 1.29904 1.55
      vertex -0.881678 1.21352 0
      vertex -0.749999 1.29904 0
    endloop
  endfacet
  facet normal 0.0523401 -0.998629 0
    outer loop
      vertex -0.156793 1.49178 0
      vertex 0 1.5 1.55
      vertex -0.156793 1.49178 1.55
    endloop
  endfacet
  facet normal 0.0523401 -0.998629 0
    outer loop
      vertex 0 1.5 1.55
      vertex -0.156793 1.49178 0
      vertex 0 1.5 0
    endloop
  endfacet
  facet normal 0.156432 -0.987689 0
    outer loop
      vertex -0.311867 1.46722 0
      vertex -0.156793 1.49178 1.55
      vertex -0.311867 1.46722 1.55
    endloop
  endfacet
  facet normal 0.156432 -0.987689 0
    outer loop
      vertex -0.156793 1.49178 1.55
      vertex -0.311867 1.46722 0
      vertex -0.156793 1.49178 0
    endloop
  endfacet
  facet normal -0.0523401 0.998629 0
    outer loop
      vertex 0.156793 -1.49178 0
      vertex 0 -1.5 1.55
      vertex 0.156793 -1.49178 1.55
    endloop
  endfacet
  facet normal -0.0523401 0.998629 0
    outer loop
      vertex 0 -1.5 1.55
      vertex 0.156793 -1.49178 0
      vertex 0 -1.5 0
    endloop
  endfacet
  facet normal -0.156432 0.987689 0
    outer loop
      vertex 0.311867 -1.46722 0
      vertex 0.156793 -1.49178 1.55
      vertex 0.311867 -1.46722 1.55
    endloop
  endfacet
  facet normal -0.156432 0.987689 0
    outer loop
      vertex 0.156793 -1.49178 1.55
      vertex 0.311867 -1.46722 0
      vertex 0.156793 -1.49178 0
    endloop
  endfacet
  facet normal -0.453987 0.891008 0
    outer loop
      vertex 0.75 -1.29904 0
      vertex 0.610105 -1.37032 1.55
      vertex 0.75 -1.29904 1.55
    endloop
  endfacet
  facet normal -0.453987 0.891008 0
    outer loop
      vertex 0.610105 -1.37032 1.55
      vertex 0.75 -1.29904 0
      vertex 0.610105 -1.37032 0
    endloop
  endfacet
  facet normal -0.629321 0.777145 0
    outer loop
      vertex 1.0037 -1.11472 0
      vertex 0.881678 -1.21352 1.55
      vertex 1.0037 -1.11472 1.55
    endloop
  endfacet
  facet normal -0.629321 0.777145 0
    outer loop
      vertex 0.881678 -1.21352 1.55
      vertex 1.0037 -1.11472 0
      vertex 0.881678 -1.21352 0
    endloop
  endfacet
  facet normal -0.544642 0.838669 0
    outer loop
      vertex 0.881678 -1.21352 0
      vertex 0.75 -1.29904 1.55
      vertex 0.881678 -1.21352 1.55
    endloop
  endfacet
  facet normal -0.544642 0.838669 0
    outer loop
      vertex 0.75 -1.29904 1.55
      vertex 0.881678 -1.21352 0
      vertex 0.75 -1.29904 0
    endloop
  endfacet
  facet normal -0.777145 0.629321 0
    outer loop
      vertex 1.11472 -1.0037 0
      vertex 1.21352 -0.881678 1.55
      vertex 1.21352 -0.881678 0
    endloop
  endfacet
  facet normal -0.777145 0.629321 0
    outer loop
      vertex 1.21352 -0.881678 1.55
      vertex 1.11472 -1.0037 0
      vertex 1.11472 -1.0037 1.55
    endloop
  endfacet
  facet normal -0.83867 0.544639 0
    outer loop
      vertex 1.21352 -0.881678 0
      vertex 1.29904 -0.749999 1.55
      vertex 1.29904 -0.749999 0
    endloop
  endfacet
  facet normal -0.83867 0.544639 0
    outer loop
      vertex 1.29904 -0.749999 1.55
      vertex 1.21352 -0.881678 0
      vertex 1.21352 -0.881678 1.55
    endloop
  endfacet
  facet normal 0.156432 0.987689 -0
    outer loop
      vertex -0.156793 -1.49178 0
      vertex -0.311867 -1.46722 1.55
      vertex -0.156793 -1.49178 1.55
    endloop
  endfacet
  facet normal 0.156432 0.987689 0
    outer loop
      vertex -0.311867 -1.46722 1.55
      vertex -0.156793 -1.49178 0
      vertex -0.311867 -1.46722 0
    endloop
  endfacet
  facet normal 0.707107 0.707107 0
    outer loop
      vertex -1.0037 -1.11472 1.55
      vertex -1.11472 -1.0037 0
      vertex -1.11472 -1.0037 1.55
    endloop
  endfacet
  facet normal 0.707107 0.707107 0
    outer loop
      vertex -1.11472 -1.0037 0
      vertex -1.0037 -1.11472 1.55
      vertex -1.0037 -1.11472 0
    endloop
  endfacet
  facet normal 0.0523401 0.998629 -0
    outer loop
      vertex 0 -1.5 0
      vertex -0.156793 -1.49178 1.55
      vertex 0 -1.5 1.55
    endloop
  endfacet
  facet normal 0.0523401 0.998629 0
    outer loop
      vertex -0.156793 -1.49178 1.55
      vertex 0 -1.5 0
      vertex -0.156793 -1.49178 0
    endloop
  endfacet
  facet normal 0.629321 0.777145 -0
    outer loop
      vertex -0.881678 -1.21352 0
      vertex -1.0037 -1.11472 1.55
      vertex -0.881678 -1.21352 1.55
    endloop
  endfacet
  facet normal 0.629321 0.777145 0
    outer loop
      vertex -1.0037 -1.11472 1.55
      vertex -0.881678 -1.21352 0
      vertex -1.0037 -1.11472 0
    endloop
  endfacet
  facet normal 0.777145 0.629321 0
    outer loop
      vertex -1.11472 -1.0037 1.55
      vertex -1.21352 -0.881678 0
      vertex -1.21352 -0.881678 1.55
    endloop
  endfacet
  facet normal 0.777145 0.629321 0
    outer loop
      vertex -1.21352 -0.881678 0
      vertex -1.11472 -1.0037 1.55
      vertex -1.11472 -1.0037 0
    endloop
  endfacet
  facet normal 0.965925 0.258821 0
    outer loop
      vertex -1.42658 -0.463525 1.55
      vertex -1.46722 -0.311867 0
      vertex -1.46722 -0.311867 1.55
    endloop
  endfacet
  facet normal 0.965925 0.258821 0
    outer loop
      vertex -1.46722 -0.311867 0
      vertex -1.42658 -0.463525 1.55
      vertex -1.42658 -0.463525 0
    endloop
  endfacet
  facet normal 0.998629 0.0523401 0
    outer loop
      vertex -1.49178 -0.156793 1.55
      vertex -1.5 0 0
      vertex -1.5 0 1.55
    endloop
  endfacet
  facet normal 0.998629 0.0523401 0
    outer loop
      vertex -1.5 0 0
      vertex -1.49178 -0.156793 1.55
      vertex -1.49178 -0.156793 0
    endloop
  endfacet
  facet normal 0.93358 0.358368 0
    outer loop
      vertex -1.37032 -0.610105 1.55
      vertex -1.42658 -0.463525 0
      vertex -1.42658 -0.463525 1.55
    endloop
  endfacet
  facet normal 0.93358 0.358368 0
    outer loop
      vertex -1.42658 -0.463525 0
      vertex -1.37032 -0.610105 1.55
      vertex -1.37032 -0.610105 0
    endloop
  endfacet
  facet normal -0.987689 -0.156432 0
    outer loop
      vertex 1.49178 0.156793 0
      vertex 1.46722 0.311867 1.55
      vertex 1.46722 0.311867 0
    endloop
  endfacet
  facet normal -0.987689 -0.156432 0
    outer loop
      vertex 1.46722 0.311867 1.55
      vertex 1.49178 0.156793 0
      vertex 1.49178 0.156793 1.55
    endloop
  endfacet
  facet normal -0.156432 -0.987689 0
    outer loop
      vertex 0.156793 1.49178 0
      vertex 0.311867 1.46722 1.55
      vertex 0.156793 1.49178 1.55
    endloop
  endfacet
  facet normal -0.156432 -0.987689 -0
    outer loop
      vertex 0.311867 1.46722 1.55
      vertex 0.156793 1.49178 0
      vertex 0.311867 1.46722 0
    endloop
  endfacet
  facet normal 0.707107 -0.707107 0
    outer loop
      vertex -1.11472 1.0037 1.55
      vertex -1.0037 1.11472 0
      vertex -1.0037 1.11472 1.55
    endloop
  endfacet
  facet normal 0.707107 -0.707107 0
    outer loop
      vertex -1.0037 1.11472 0
      vertex -1.11472 1.0037 1.55
      vertex -1.11472 1.0037 0
    endloop
  endfacet
  facet normal 0.987689 -0.156432 0
    outer loop
      vertex -1.49178 0.156793 1.55
      vertex -1.46722 0.311867 0
      vertex -1.46722 0.311867 1.55
    endloop
  endfacet
  facet normal 0.987689 -0.156432 0
    outer loop
      vertex -1.46722 0.311867 0
      vertex -1.49178 0.156793 1.55
      vertex -1.49178 0.156793 0
    endloop
  endfacet
  facet normal 0.93358 -0.358368 0
    outer loop
      vertex -1.42658 0.463525 1.55
      vertex -1.37032 0.610105 0
      vertex -1.37032 0.610105 1.55
    endloop
  endfacet
  facet normal 0.93358 -0.358368 0
    outer loop
      vertex -1.37032 0.610105 0
      vertex -1.42658 0.463525 1.55
      vertex -1.42658 0.463525 0
    endloop
  endfacet
  facet normal 0.258821 -0.965925 0
    outer loop
      vertex -0.463525 1.42658 0
      vertex -0.311867 1.46722 1.55
      vertex -0.463525 1.42658 1.55
    endloop
  endfacet
  facet normal 0.258821 -0.965925 0
    outer loop
      vertex -0.311867 1.46722 1.55
      vertex -0.463525 1.42658 0
      vertex -0.311867 1.46722 0
    endloop
  endfacet
  facet normal -0.358368 0.93358 0
    outer loop
      vertex 0.610105 -1.37032 0
      vertex 0.463525 -1.42658 1.55
      vertex 0.610105 -1.37032 1.55
    endloop
  endfacet
  facet normal -0.358368 0.93358 0
    outer loop
      vertex 0.463525 -1.42658 1.55
      vertex 0.610105 -1.37032 0
      vertex 0.463525 -1.42658 0
    endloop
  endfacet
  facet normal -0.93358 0.358368 0
    outer loop
      vertex 1.37032 -0.610105 0
      vertex 1.42658 -0.463525 1.55
      vertex 1.42658 -0.463525 0
    endloop
  endfacet
  facet normal -0.93358 0.358368 0
    outer loop
      vertex 1.42658 -0.463525 1.55
      vertex 1.37032 -0.610105 0
      vertex 1.37032 -0.610105 1.55
    endloop
  endfacet
  facet normal -0.987689 0.156432 0
    outer loop
      vertex 1.46722 -0.311867 0
      vertex 1.49178 -0.156793 1.55
      vertex 1.49178 -0.156793 0
    endloop
  endfacet
  facet normal -0.987689 0.156432 0
    outer loop
      vertex 1.49178 -0.156793 1.55
      vertex 1.46722 -0.311867 0
      vertex 1.46722 -0.311867 1.55
    endloop
  endfacet
  facet normal -0.998629 0.0523401 0
    outer loop
      vertex 1.49178 -0.156793 0
      vertex 1.5 0 1.55
      vertex 1.5 0 0
    endloop
  endfacet
  facet normal -0.998629 0.0523401 0
    outer loop
      vertex 1.5 0 1.55
      vertex 1.49178 -0.156793 0
      vertex 1.49178 -0.156793 1.55
    endloop
  endfacet
  facet normal 0.258821 0.965925 -0
    outer loop
      vertex -0.311867 -1.46722 0
      vertex -0.463525 -1.42658 1.55
      vertex -0.311867 -1.46722 1.55
    endloop
  endfacet
  facet normal 0.258821 0.965925 0
    outer loop
      vertex -0.463525 -1.42658 1.55
      vertex -0.311867 -1.46722 0
      vertex -0.463525 -1.42658 0
    endloop
  endfacet
  facet normal 0.453987 0.891008 -0
    outer loop
      vertex -0.610105 -1.37032 0
      vertex -0.75 -1.29904 1.55
      vertex -0.610105 -1.37032 1.55
    endloop
  endfacet
  facet normal 0.453987 0.891008 0
    outer loop
      vertex -0.75 -1.29904 1.55
      vertex -0.610105 -1.37032 0
      vertex -0.75 -1.29904 0
    endloop
  endfacet
  facet normal 0.987689 0.156432 0
    outer loop
      vertex -1.46722 -0.311867 1.55
      vertex -1.49178 -0.156793 0
      vertex -1.49178 -0.156793 1.55
    endloop
  endfacet
  facet normal 0.987689 0.156432 0
    outer loop
      vertex -1.49178 -0.156793 0
      vertex -1.46722 -0.311867 1.55
      vertex -1.46722 -0.311867 0
    endloop
  endfacet
endsolid OpenSCAD_Model
