solid OpenSCAD_Model
  facet normal 1 -0 0
    outer loop
      vertex 2 2 4.5
      vertex 2 132 3
      vertex 2 132 4.5
    endloop
  endfacet
  facet normal 1 0 0
    outer loop
      vertex 2 132 3
      vertex 2 2 4.5
      vertex 2 2 3
    endloop
  endfacet
  facet normal -1 0 0
    outer loop
      vertex 74 2 3
      vertex 74 132 4.5
      vertex 74 132 3
    endloop
  endfacet
  facet normal -1 -0 0
    outer loop
      vertex 74 132 4.5
      vertex 74 2 3
      vertex 74 2 4.5
    endloop
  endfacet
  facet normal 0 -1 0
    outer loop
      vertex 2 132 3
      vertex 74 132 4.5
      vertex 2 132 4.5
    endloop
  endfacet
  facet normal 0 -1 -0
    outer loop
      vertex 74 132 4.5
      vertex 2 132 3
      vertex 74 132 3
    endloop
  endfacet
  facet normal 0 0 1
    outer loop
      vertex 74 132 3
      vertex 71 2 3
      vertex 74 2 3
    endloop
  endfacet
  facet normal 0 0 1
    outer loop
      vertex 74 132 3
      vertex 17 2 3
      vertex 71 2 3
    endloop
  endfacet
  facet normal -0 0 1
    outer loop
      vertex 2 132 3
      vertex 17 2 3
      vertex 74 132 3
    endloop
  endfacet
  facet normal 0 0 1
    outer loop
      vertex 17 2 3
      vertex 2 132 3
      vertex 2 2 3
    endloop
  endfacet
  facet normal 0 1 -0
    outer loop
      vertex 17 2 3
      vertex 2 2 4.5
      vertex 17 2 4.5
    endloop
  endfacet
  facet normal 0 1 0
    outer loop
      vertex 2 2 4.5
      vertex 17 2 3
      vertex 2 2 3
    endloop
  endfacet
  facet normal 0 1 -0
    outer loop
      vertex 74 2 3
      vertex 71 2 4.5
      vertex 74 2 4.5
    endloop
  endfacet
  facet normal 0 1 0
    outer loop
      vertex 71 2 4.5
      vertex 74 2 3
      vertex 71 2 3
    endloop
  endfacet
  facet normal 0 -1 0
    outer loop
      vertex 17 2 0
      vertex 71 2 3
      vertex 17 2 3
    endloop
  endfacet
  facet normal 0 -1 -0
    outer loop
      vertex 71 2 3
      vertex 17 2 0
      vertex 71 2 0
    endloop
  endfacet
  facet normal 1 -0 0
    outer loop
      vertex 17 -2 4.5
      vertex 17 2 3
      vertex 17 2 4.5
    endloop
  endfacet
  facet normal 1 0 0
    outer loop
      vertex 17 -2 0
      vertex 17 2 3
      vertex 17 -2 4.5
    endloop
  endfacet
  facet normal 1 0 0
    outer loop
      vertex 17 2 3
      vertex 17 -2 0
      vertex 17 2 0
    endloop
  endfacet
  facet normal -1 0 0
    outer loop
      vertex 71 -2 0
      vertex 71 2 3
      vertex 71 2 0
    endloop
  endfacet
  facet normal -1 0 0
    outer loop
      vertex 71 -2 4.5
      vertex 71 2 3
      vertex 71 -2 0
    endloop
  endfacet
  facet normal -1 0 0
    outer loop
      vertex 71 2 3
      vertex 71 -2 4.5
      vertex 71 2 4.5
    endloop
  endfacet
  facet normal 1 -0 0
    outer loop
      vertex 78 0 4.5
      vertex 78 134 0
      vertex 78 134 4.5
    endloop
  endfacet
  facet normal 1 0 0
    outer loop
      vertex 78 134 0
      vertex 78 0 4.5
      vertex 78 0 0
    endloop
  endfacet
  facet normal 0.99863 -0.0523341 0
    outer loop
      vertex 77.989 -0.209057 4.5
      vertex 78 0 0
      vertex 78 0 4.5
    endloop
  endfacet
  facet normal 0.99863 -0.0523341 0
    outer loop
      vertex 78 0 0
      vertex 77.989 -0.209057 4.5
      vertex 77.989 -0.209057 0
    endloop
  endfacet
  facet normal -1 0 0
    outer loop
      vertex -2 0 0
      vertex -2 134 4.5
      vertex -2 134 0
    endloop
  endfacet
  facet normal -1 -0 0
    outer loop
      vertex -2 134 4.5
      vertex -2 0 0
      vertex -2 0 4.5
    endloop
  endfacet
  facet normal 0 -1 0
    outer loop
      vertex 0 -2 0
      vertex 17 -2 4.5
      vertex 0 -2 4.5
    endloop
  endfacet
  facet normal 0 -1 -0
    outer loop
      vertex 17 -2 4.5
      vertex 0 -2 0
      vertex 17 -2 0
    endloop
  endfacet
  facet normal 0 -1 0
    outer loop
      vertex 71 -2 0
      vertex 76 -2 4.5
      vertex 71 -2 4.5
    endloop
  endfacet
  facet normal 0 -1 -0
    outer loop
      vertex 76 -2 4.5
      vertex 71 -2 0
      vertex 76 -2 0
    endloop
  endfacet
  facet normal 0 0 1
    outer loop
      vertex 76 136 4.5
      vertex 78 134 4.5
      vertex 77.989 134.209 4.5
    endloop
  endfacet
  facet normal 0 0 1
    outer loop
      vertex 78 134 4.5
      vertex 74 132 4.5
      vertex 78 0 4.5
    endloop
  endfacet
  facet normal 0 0 1
    outer loop
      vertex 76 136 4.5
      vertex 77.989 134.209 4.5
      vertex 77.9563 134.416 4.5
    endloop
  endfacet
  facet normal -0 0 1
    outer loop
      vertex 74 2 4.5
      vertex 78 0 4.5
      vertex 74 132 4.5
    endloop
  endfacet
  facet normal 0 0 1
    outer loop
      vertex 76 136 4.5
      vertex 77.9563 134.416 4.5
      vertex 77.9021 134.618 4.5
    endloop
  endfacet
  facet normal 0 -0 1
    outer loop
      vertex 76 -2 4.5
      vertex 78 0 4.5
      vertex 74 2 4.5
    endloop
  endfacet
  facet normal 0 0 1
    outer loop
      vertex 76 136 4.5
      vertex 77.9021 134.618 4.5
      vertex 77.8271 134.813 4.5
    endloop
  endfacet
  facet normal 0 0 1
    outer loop
      vertex 78 0 4.5
      vertex 76 -2 4.5
      vertex 77.989 -0.209057 4.5
    endloop
  endfacet
  facet normal 0 0 1
    outer loop
      vertex 76 136 4.5
      vertex 77.8271 134.813 4.5
      vertex 77.732 135 4.5
    endloop
  endfacet
  facet normal 0 0 1
    outer loop
      vertex 77.989 -0.209057 4.5
      vertex 76 -2 4.5
      vertex 77.9563 -0.415823 4.5
    endloop
  endfacet
  facet normal 0 0 1
    outer loop
      vertex 76 136 4.5
      vertex 77.732 135 4.5
      vertex 77.618 135.176 4.5
    endloop
  endfacet
  facet normal 0 0 1
    outer loop
      vertex 77.9563 -0.415823 4.5
      vertex 76 -2 4.5
      vertex 77.9021 -0.618033 4.5
    endloop
  endfacet
  facet normal 0 0 1
    outer loop
      vertex 76 136 4.5
      vertex 77.618 135.176 4.5
      vertex 77.4863 135.338 4.5
    endloop
  endfacet
  facet normal 0 0 1
    outer loop
      vertex 77.9021 -0.618033 4.5
      vertex 76 -2 4.5
      vertex 77.8271 -0.813473 4.5
    endloop
  endfacet
  facet normal 0 0 1
    outer loop
      vertex 76 136 4.5
      vertex 77.4863 135.338 4.5
      vertex 77.3383 135.486 4.5
    endloop
  endfacet
  facet normal 0 0 1
    outer loop
      vertex 77.8271 -0.813473 4.5
      vertex 76 -2 4.5
      vertex 77.732 -0.999999 4.5
    endloop
  endfacet
  facet normal 0 0 1
    outer loop
      vertex 76 136 4.5
      vertex 77.3383 135.486 4.5
      vertex 77.1756 135.618 4.5
    endloop
  endfacet
  facet normal 0 0 1
    outer loop
      vertex 77.732 -0.999999 4.5
      vertex 76 -2 4.5
      vertex 77.618 -1.17557 4.5
    endloop
  endfacet
  facet normal 0 0 1
    outer loop
      vertex 76 136 4.5
      vertex 77.1756 135.618 4.5
      vertex 77 135.732 4.5
    endloop
  endfacet
  facet normal 0 0 1
    outer loop
      vertex 77.618 -1.17557 4.5
      vertex 76 -2 4.5
      vertex 77.4863 -1.33826 4.5
    endloop
  endfacet
  facet normal 0 0 1
    outer loop
      vertex 76 136 4.5
      vertex 77 135.732 4.5
      vertex 76.8135 135.827 4.5
    endloop
  endfacet
  facet normal 0 0 1
    outer loop
      vertex 77.4863 -1.33826 4.5
      vertex 76 -2 4.5
      vertex 77.3383 -1.48629 4.5
    endloop
  endfacet
  facet normal 0 0 1
    outer loop
      vertex 76 136 4.5
      vertex 76.8135 135.827 4.5
      vertex 76.618 135.902 4.5
    endloop
  endfacet
  facet normal 0 0 1
    outer loop
      vertex 77.3383 -1.48629 4.5
      vertex 76 -2 4.5
      vertex 77.1756 -1.61803 4.5
    endloop
  endfacet
  facet normal 0 0 1
    outer loop
      vertex 76 136 4.5
      vertex 76.618 135.902 4.5
      vertex 76.4158 135.956 4.5
    endloop
  endfacet
  facet normal 0 0 1
    outer loop
      vertex 77.1756 -1.61803 4.5
      vertex 76 -2 4.5
      vertex 77 -1.73205 4.5
    endloop
  endfacet
  facet normal 0 0 1
    outer loop
      vertex 76 136 4.5
      vertex 76.4158 135.956 4.5
      vertex 76.2091 135.989 4.5
    endloop
  endfacet
  facet normal 0 0 1
    outer loop
      vertex 77 -1.73205 4.5
      vertex 76 -2 4.5
      vertex 76.8135 -1.82709 4.5
    endloop
  endfacet
  facet normal 0 0 1
    outer loop
      vertex 78 134 4.5
      vertex 76 136 4.5
      vertex 74 132 4.5
    endloop
  endfacet
  facet normal 0 0 1
    outer loop
      vertex 76.8135 -1.82709 4.5
      vertex 76 -2 4.5
      vertex 76.618 -1.90211 4.5
    endloop
  endfacet
  facet normal 0 0 1
    outer loop
      vertex 76.618 -1.90211 4.5
      vertex 76 -2 4.5
      vertex 76.4158 -1.9563 4.5
    endloop
  endfacet
  facet normal 0 0 1
    outer loop
      vertex 76 136 4.5
      vertex 2 132 4.5
      vertex 74 132 4.5
    endloop
  endfacet
  facet normal -0 0 1
    outer loop
      vertex -2 134 4.5
      vertex 2 132 4.5
      vertex 0 136 4.5
    endloop
  endfacet
  facet normal -0 0 1
    outer loop
      vertex 0 136 4.5
      vertex 2 132 4.5
      vertex 76 136 4.5
    endloop
  endfacet
  facet normal 0 0 1
    outer loop
      vertex 76.4158 -1.9563 4.5
      vertex 76 -2 4.5
      vertex 76.2091 -1.98904 4.5
    endloop
  endfacet
  facet normal 0 0 1
    outer loop
      vertex 71 -2 4.5
      vertex 74 2 4.5
      vertex 71 2 4.5
    endloop
  endfacet
  facet normal 0 0 1
    outer loop
      vertex 74 2 4.5
      vertex 71 -2 4.5
      vertex 76 -2 4.5
    endloop
  endfacet
  facet normal -0 0 1
    outer loop
      vertex 2 2 4.5
      vertex 17 -2 4.5
      vertex 17 2 4.5
    endloop
  endfacet
  facet normal 0 0 1
    outer loop
      vertex 2 2 4.5
      vertex 0 -2 4.5
      vertex 17 -2 4.5
    endloop
  endfacet
  facet normal 0 0 1
    outer loop
      vertex 2 132 4.5
      vertex -2 134 4.5
      vertex 2 2 4.5
    endloop
  endfacet
  facet normal 0 0 1
    outer loop
      vertex -2 134 4.5
      vertex 0 136 4.5
      vertex -0.209057 135.989 4.5
    endloop
  endfacet
  facet normal 0 0 1
    outer loop
      vertex -2 0 4.5
      vertex 2 2 4.5
      vertex -2 134 4.5
    endloop
  endfacet
  facet normal 0 0 1
    outer loop
      vertex -2 134 4.5
      vertex -0.209057 135.989 4.5
      vertex -0.415823 135.956 4.5
    endloop
  endfacet
  facet normal 0 0 1
    outer loop
      vertex 2 2 4.5
      vertex -2 0 4.5
      vertex 0 -2 4.5
    endloop
  endfacet
  facet normal 0 0 1
    outer loop
      vertex -2 134 4.5
      vertex -0.415823 135.956 4.5
      vertex -0.618033 135.902 4.5
    endloop
  endfacet
  facet normal 0 0 1
    outer loop
      vertex 0 -2 4.5
      vertex -2 0 4.5
      vertex -0.209057 -1.98904 4.5
    endloop
  endfacet
  facet normal 0 0 1
    outer loop
      vertex -2 134 4.5
      vertex -0.618033 135.902 4.5
      vertex -0.813473 135.827 4.5
    endloop
  endfacet
  facet normal 0 0 1
    outer loop
      vertex -0.209057 -1.98904 4.5
      vertex -2 0 4.5
      vertex -0.415823 -1.9563 4.5
    endloop
  endfacet
  facet normal 0 0 1
    outer loop
      vertex -2 134 4.5
      vertex -0.813473 135.827 4.5
      vertex -0.999999 135.732 4.5
    endloop
  endfacet
  facet normal 0 0 1
    outer loop
      vertex -0.415823 -1.9563 4.5
      vertex -2 0 4.5
      vertex -0.618033 -1.90211 4.5
    endloop
  endfacet
  facet normal 0 0 1
    outer loop
      vertex -2 134 4.5
      vertex -0.999999 135.732 4.5
      vertex -1.17557 135.618 4.5
    endloop
  endfacet
  facet normal 0 0 1
    outer loop
      vertex -0.618033 -1.90211 4.5
      vertex -2 0 4.5
      vertex -0.813473 -1.82709 4.5
    endloop
  endfacet
  facet normal 0 0 1
    outer loop
      vertex -2 134 4.5
      vertex -1.17557 135.618 4.5
      vertex -1.33826 135.486 4.5
    endloop
  endfacet
  facet normal 0 0 1
    outer loop
      vertex -0.813473 -1.82709 4.5
      vertex -2 0 4.5
      vertex -1 -1.73205 4.5
    endloop
  endfacet
  facet normal 0 0 1
    outer loop
      vertex -2 134 4.5
      vertex -1.33826 135.486 4.5
      vertex -1.48629 135.338 4.5
    endloop
  endfacet
  facet normal 0 0 1
    outer loop
      vertex -1 -1.73205 4.5
      vertex -2 0 4.5
      vertex -1.17557 -1.61803 4.5
    endloop
  endfacet
  facet normal 0 0 1
    outer loop
      vertex -2 134 4.5
      vertex -1.48629 135.338 4.5
      vertex -1.61803 135.176 4.5
    endloop
  endfacet
  facet normal 0 0 1
    outer loop
      vertex -1.17557 -1.61803 4.5
      vertex -2 0 4.5
      vertex -1.33826 -1.48629 4.5
    endloop
  endfacet
  facet normal 0 0 1
    outer loop
      vertex -2 134 4.5
      vertex -1.61803 135.176 4.5
      vertex -1.73205 135 4.5
    endloop
  endfacet
  facet normal 0 0 1
    outer loop
      vertex -1.33826 -1.48629 4.5
      vertex -2 0 4.5
      vertex -1.48629 -1.33826 4.5
    endloop
  endfacet
  facet normal 0 0 1
    outer loop
      vertex -2 134 4.5
      vertex -1.73205 135 4.5
      vertex -1.82709 134.813 4.5
    endloop
  endfacet
  facet normal 0 0 1
    outer loop
      vertex -1.48629 -1.33826 4.5
      vertex -2 0 4.5
      vertex -1.61803 -1.17557 4.5
    endloop
  endfacet
  facet normal 0 0 1
    outer loop
      vertex -2 134 4.5
      vertex -1.82709 134.813 4.5
      vertex -1.90211 134.618 4.5
    endloop
  endfacet
  facet normal 0 0 1
    outer loop
      vertex -1.61803 -1.17557 4.5
      vertex -2 0 4.5
      vertex -1.73205 -0.999999 4.5
    endloop
  endfacet
  facet normal 0 0 1
    outer loop
      vertex -2 134 4.5
      vertex -1.90211 134.618 4.5
      vertex -1.9563 134.416 4.5
    endloop
  endfacet
  facet normal 0 0 1
    outer loop
      vertex -1.73205 -0.999999 4.5
      vertex -2 0 4.5
      vertex -1.82709 -0.813473 4.5
    endloop
  endfacet
  facet normal 0 0 1
    outer loop
      vertex -2 134 4.5
      vertex -1.9563 134.416 4.5
      vertex -1.98904 134.209 4.5
    endloop
  endfacet
  facet normal 0 0 1
    outer loop
      vertex -1.82709 -0.813473 4.5
      vertex -2 0 4.5
      vertex -1.90211 -0.618033 4.5
    endloop
  endfacet
  facet normal 0 0 1
    outer loop
      vertex -1.90211 -0.618033 4.5
      vertex -2 0 4.5
      vertex -1.9563 -0.415823 4.5
    endloop
  endfacet
  facet normal 0 0 1
    outer loop
      vertex -1.9563 -0.415823 4.5
      vertex -2 0 4.5
      vertex -1.98904 -0.209057 4.5
    endloop
  endfacet
  facet normal -0.838667 0.544644 0
    outer loop
      vertex -1.73205 135 0
      vertex -1.61803 135.176 4.5
      vertex -1.61803 135.176 0
    endloop
  endfacet
  facet normal -0.838667 0.544644 0
    outer loop
      vertex -1.61803 135.176 4.5
      vertex -1.73205 135 0
      vertex -1.73205 135 4.5
    endloop
  endfacet
  facet normal 0.99863 0.0523331 0
    outer loop
      vertex 78 134 4.5
      vertex 77.989 134.209 0
      vertex 77.989 134.209 4.5
    endloop
  endfacet
  facet normal 0.99863 0.0523331 0
    outer loop
      vertex 77.989 134.209 0
      vertex 78 134 4.5
      vertex 78 134 0
    endloop
  endfacet
  facet normal 0.707095 -0.707118 0
    outer loop
      vertex 77.3383 -1.48629 0
      vertex 77.4863 -1.33826 4.5
      vertex 77.3383 -1.48629 4.5
    endloop
  endfacet
  facet normal 0.707095 -0.707118 0
    outer loop
      vertex 77.4863 -1.33826 4.5
      vertex 77.3383 -1.48629 0
      vertex 77.4863 -1.33826 0
    endloop
  endfacet
  facet normal 0.891005 0.453994 0
    outer loop
      vertex 77.8271 134.813 4.5
      vertex 77.732 135 0
      vertex 77.732 135 4.5
    endloop
  endfacet
  facet normal 0.891005 0.453994 0
    outer loop
      vertex 77.732 135 0
      vertex 77.8271 134.813 4.5
      vertex 77.8271 134.813 0
    endloop
  endfacet
  facet normal -0.777145 -0.629322 0
    outer loop
      vertex -1.48629 -1.33826 0
      vertex -1.61803 -1.17557 4.5
      vertex -1.61803 -1.17557 0
    endloop
  endfacet
  facet normal -0.777145 -0.629322 0
    outer loop
      vertex -1.61803 -1.17557 4.5
      vertex -1.48629 -1.33826 0
      vertex -1.48629 -1.33826 4.5
    endloop
  endfacet
  facet normal -0.544638 -0.838671 0
    outer loop
      vertex -1.17557 -1.61803 0
      vertex -1 -1.73205 4.5
      vertex -1.17557 -1.61803 4.5
    endloop
  endfacet
  facet normal -0.544638 -0.838671 -0
    outer loop
      vertex -1 -1.73205 4.5
      vertex -1.17557 -1.61803 0
      vertex -1 -1.73205 0
    endloop
  endfacet
  facet normal -0.156433 -0.987689 0
    outer loop
      vertex -0.415823 -1.9563 0
      vertex -0.209057 -1.98904 4.5
      vertex -0.415823 -1.9563 4.5
    endloop
  endfacet
  facet normal -0.156433 -0.987689 -0
    outer loop
      vertex -0.209057 -1.98904 4.5
      vertex -0.415823 -1.9563 0
      vertex -0.209057 -1.98904 0
    endloop
  endfacet
  facet normal 0.933572 -0.35839 0
    outer loop
      vertex 77.8271 -0.813473 4.5
      vertex 77.9021 -0.618033 0
      vertex 77.9021 -0.618033 4.5
    endloop
  endfacet
  facet normal 0.933572 -0.35839 0
    outer loop
      vertex 77.9021 -0.618033 0
      vertex 77.8271 -0.813473 4.5
      vertex 77.8271 -0.813473 0
    endloop
  endfacet
  facet normal -0.998629 0.0523377 0
    outer loop
      vertex -2 134 0
      vertex -1.98904 134.209 4.5
      vertex -1.98904 134.209 0
    endloop
  endfacet
  facet normal -0.998629 0.0523377 0
    outer loop
      vertex -1.98904 134.209 4.5
      vertex -2 134 0
      vertex -2 134 4.5
    endloop
  endfacet
  facet normal 0 1 -0
    outer loop
      vertex 76 136 0
      vertex 0 136 4.5
      vertex 76 136 4.5
    endloop
  endfacet
  facet normal 0 1 0
    outer loop
      vertex 0 136 4.5
      vertex 76 136 0
      vertex 0 136 0
    endloop
  endfacet
  facet normal 0.965923 0.258828 0
    outer loop
      vertex 77.9563 134.416 4.5
      vertex 77.9021 134.618 0
      vertex 77.9021 134.618 4.5
    endloop
  endfacet
  facet normal 0.965923 0.258828 0
    outer loop
      vertex 77.9021 134.618 0
      vertex 77.9563 134.416 4.5
      vertex 77.9563 134.416 0
    endloop
  endfacet
  facet normal -0.965926 -0.258819 0
    outer loop
      vertex -1.90211 -0.618033 0
      vertex -1.9563 -0.415823 4.5
      vertex -1.9563 -0.415823 0
    endloop
  endfacet
  facet normal -0.965926 -0.258819 0
    outer loop
      vertex -1.9563 -0.415823 4.5
      vertex -1.90211 -0.618033 0
      vertex -1.90211 -0.618033 4.5
    endloop
  endfacet
  facet normal 0 0 -1
    outer loop
      vertex 17 -2 0
      vertex 0 -2 0
      vertex 17 2 0
    endloop
  endfacet
  facet normal 0 0 -1
    outer loop
      vertex 76 -2 0
      vertex 78 0 0
      vertex 77.989 -0.209057 0
    endloop
  endfacet
  facet normal 0 0 -1
    outer loop
      vertex 78 0 0
      vertex 71 2 0
      vertex 78 134 0
    endloop
  endfacet
  facet normal 0 0 -1
    outer loop
      vertex 76 -2 0
      vertex 77.989 -0.209057 0
      vertex 77.9563 -0.415823 0
    endloop
  endfacet
  facet normal 0 0 -1
    outer loop
      vertex 17 2 0
      vertex 78 134 0
      vertex 71 2 0
    endloop
  endfacet
  facet normal 0 0 -1
    outer loop
      vertex 76 -2 0
      vertex 77.9563 -0.415823 0
      vertex 77.9021 -0.618033 0
    endloop
  endfacet
  facet normal 0 0 -1
    outer loop
      vertex -2 134 0
      vertex 78 134 0
      vertex 17 2 0
    endloop
  endfacet
  facet normal 0 0 -1
    outer loop
      vertex 76 -2 0
      vertex 77.9021 -0.618033 0
      vertex 77.8271 -0.813473 0
    endloop
  endfacet
  facet normal 0 -0 -1
    outer loop
      vertex 76 136 0
      vertex 78 134 0
      vertex -2 134 0
    endloop
  endfacet
  facet normal 0 0 -1
    outer loop
      vertex 76 -2 0
      vertex 77.8271 -0.813473 0
      vertex 77.732 -0.999999 0
    endloop
  endfacet
  facet normal 0 0 -1
    outer loop
      vertex 78 134 0
      vertex 76 136 0
      vertex 77.989 134.209 0
    endloop
  endfacet
  facet normal 0 0 -1
    outer loop
      vertex 76 -2 0
      vertex 77.732 -0.999999 0
      vertex 77.618 -1.17557 0
    endloop
  endfacet
  facet normal 0 0 -1
    outer loop
      vertex 77.989 134.209 0
      vertex 76 136 0
      vertex 77.9563 134.416 0
    endloop
  endfacet
  facet normal 0 0 -1
    outer loop
      vertex 76 -2 0
      vertex 77.618 -1.17557 0
      vertex 77.4863 -1.33826 0
    endloop
  endfacet
  facet normal 0 0 -1
    outer loop
      vertex 77.9563 134.416 0
      vertex 76 136 0
      vertex 77.9021 134.618 0
    endloop
  endfacet
  facet normal 0 0 -1
    outer loop
      vertex 76 -2 0
      vertex 77.4863 -1.33826 0
      vertex 77.3383 -1.48629 0
    endloop
  endfacet
  facet normal 0 0 -1
    outer loop
      vertex 77.732 135 0
      vertex 76 136 0
      vertex 77.618 135.176 0
    endloop
  endfacet
  facet normal 0 0 -1
    outer loop
      vertex 76 -2 0
      vertex 77.3383 -1.48629 0
      vertex 77.1756 -1.61803 0
    endloop
  endfacet
  facet normal 0 0 -1
    outer loop
      vertex 77.618 135.176 0
      vertex 76 136 0
      vertex 77.4863 135.338 0
    endloop
  endfacet
  facet normal 0 0 -1
    outer loop
      vertex 76 -2 0
      vertex 77.1756 -1.61803 0
      vertex 77 -1.73205 0
    endloop
  endfacet
  facet normal 0 0 -1
    outer loop
      vertex 77.4863 135.338 0
      vertex 76 136 0
      vertex 77.3383 135.486 0
    endloop
  endfacet
  facet normal 0 0 -1
    outer loop
      vertex 76 -2 0
      vertex 77 -1.73205 0
      vertex 76.8135 -1.82709 0
    endloop
  endfacet
  facet normal 0 0 -1
    outer loop
      vertex 77.3383 135.486 0
      vertex 76 136 0
      vertex 77.1756 135.618 0
    endloop
  endfacet
  facet normal 0 0 -1
    outer loop
      vertex 76 -2 0
      vertex 76.8135 -1.82709 0
      vertex 76.618 -1.90211 0
    endloop
  endfacet
  facet normal 0 0 -1
    outer loop
      vertex 77.1756 135.618 0
      vertex 76 136 0
      vertex 77 135.732 0
    endloop
  endfacet
  facet normal 0 0 -1
    outer loop
      vertex 76 -2 0
      vertex 76.618 -1.90211 0
      vertex 76.4158 -1.9563 0
    endloop
  endfacet
  facet normal 0 0 -1
    outer loop
      vertex 77 135.732 0
      vertex 76 136 0
      vertex 76.8135 135.827 0
    endloop
  endfacet
  facet normal 0 0 -1
    outer loop
      vertex 76 -2 0
      vertex 76.4158 -1.9563 0
      vertex 76.2091 -1.98904 0
    endloop
  endfacet
  facet normal 0 0 -1
    outer loop
      vertex 76.8135 135.827 0
      vertex 76 136 0
      vertex 76.618 135.902 0
    endloop
  endfacet
  facet normal -0 0 -1
    outer loop
      vertex 78 0 0
      vertex 76 -2 0
      vertex 71 2 0
    endloop
  endfacet
  facet normal 0 0 -1
    outer loop
      vertex 76.618 135.902 0
      vertex 76 136 0
      vertex 76.4158 135.956 0
    endloop
  endfacet
  facet normal 0 0 -1
    outer loop
      vertex 71 2 0
      vertex 76 -2 0
      vertex 71 -2 0
    endloop
  endfacet
  facet normal 0 0 -1
    outer loop
      vertex 76.4158 135.956 0
      vertex 76 136 0
      vertex 76.2091 135.989 0
    endloop
  endfacet
  facet normal 0 0 -1
    outer loop
      vertex 77.8271 134.813 0
      vertex 76 136 0
      vertex 77.732 135 0
    endloop
  endfacet
  facet normal 0 0 -1
    outer loop
      vertex -2 0 0
      vertex 17 2 0
      vertex 0 -2 0
    endloop
  endfacet
  facet normal 0 0 -1
    outer loop
      vertex -2 134 0
      vertex 17 2 0
      vertex -2 0 0
    endloop
  endfacet
  facet normal 0 0 -1
    outer loop
      vertex -2 0 0
      vertex 0 -2 0
      vertex -0.209057 -1.98904 0
    endloop
  endfacet
  facet normal 0 0 -1
    outer loop
      vertex 77.9021 134.618 0
      vertex 76 136 0
      vertex 77.8271 134.813 0
    endloop
  endfacet
  facet normal 0 0 -1
    outer loop
      vertex -2 0 0
      vertex -0.209057 -1.98904 0
      vertex -0.415823 -1.9563 0
    endloop
  endfacet
  facet normal -0 0 -1
    outer loop
      vertex 76 136 0
      vertex -2 134 0
      vertex 0 136 0
    endloop
  endfacet
  facet normal 0 0 -1
    outer loop
      vertex -2 0 0
      vertex -0.415823 -1.9563 0
      vertex -0.618033 -1.90211 0
    endloop
  endfacet
  facet normal 0 0 -1
    outer loop
      vertex 0 136 0
      vertex -2 134 0
      vertex -0.209057 135.989 0
    endloop
  endfacet
  facet normal 0 0 -1
    outer loop
      vertex -2 0 0
      vertex -0.618033 -1.90211 0
      vertex -0.813473 -1.82709 0
    endloop
  endfacet
  facet normal 0 0 -1
    outer loop
      vertex -0.209057 135.989 0
      vertex -2 134 0
      vertex -0.415823 135.956 0
    endloop
  endfacet
  facet normal 0 0 -1
    outer loop
      vertex -0.618033 135.902 0
      vertex -2 134 0
      vertex -0.813473 135.827 0
    endloop
  endfacet
  facet normal 0 0 -1
    outer loop
      vertex -2 0 0
      vertex -0.813473 -1.82709 0
      vertex -1 -1.73205 0
    endloop
  endfacet
  facet normal 0 0 -1
    outer loop
      vertex -2 0 0
      vertex -1 -1.73205 0
      vertex -1.17557 -1.61803 0
    endloop
  endfacet
  facet normal 0 0 -1
    outer loop
      vertex -0.415823 135.956 0
      vertex -2 134 0
      vertex -0.618033 135.902 0
    endloop
  endfacet
  facet normal 0 0 -1
    outer loop
      vertex -2 0 0
      vertex -1.17557 -1.61803 0
      vertex -1.33826 -1.48629 0
    endloop
  endfacet
  facet normal 0 0 -1
    outer loop
      vertex -0.813473 135.827 0
      vertex -2 134 0
      vertex -0.999999 135.732 0
    endloop
  endfacet
  facet normal 0 0 -1
    outer loop
      vertex -2 0 0
      vertex -1.33826 -1.48629 0
      vertex -1.48629 -1.33826 0
    endloop
  endfacet
  facet normal 0 0 -1
    outer loop
      vertex -0.999999 135.732 0
      vertex -2 134 0
      vertex -1.17557 135.618 0
    endloop
  endfacet
  facet normal 0 0 -1
    outer loop
      vertex -2 0 0
      vertex -1.48629 -1.33826 0
      vertex -1.61803 -1.17557 0
    endloop
  endfacet
  facet normal 0 0 -1
    outer loop
      vertex -1.17557 135.618 0
      vertex -2 134 0
      vertex -1.33826 135.486 0
    endloop
  endfacet
  facet normal 0 0 -1
    outer loop
      vertex -2 0 0
      vertex -1.61803 -1.17557 0
      vertex -1.73205 -0.999999 0
    endloop
  endfacet
  facet normal 0 0 -1
    outer loop
      vertex -1.33826 135.486 0
      vertex -2 134 0
      vertex -1.48629 135.338 0
    endloop
  endfacet
  facet normal 0 0 -1
    outer loop
      vertex -2 0 0
      vertex -1.73205 -0.999999 0
      vertex -1.82709 -0.813473 0
    endloop
  endfacet
  facet normal 0 0 -1
    outer loop
      vertex -1.48629 135.338 0
      vertex -2 134 0
      vertex -1.61803 135.176 0
    endloop
  endfacet
  facet normal 0 0 -1
    outer loop
      vertex -2 0 0
      vertex -1.82709 -0.813473 0
      vertex -1.90211 -0.618033 0
    endloop
  endfacet
  facet normal 0 0 -1
    outer loop
      vertex -1.61803 135.176 0
      vertex -2 134 0
      vertex -1.73205 135 0
    endloop
  endfacet
  facet normal 0 0 -1
    outer loop
      vertex -2 0 0
      vertex -1.90211 -0.618033 0
      vertex -1.9563 -0.415823 0
    endloop
  endfacet
  facet normal 0 0 -1
    outer loop
      vertex -1.73205 135 0
      vertex -2 134 0
      vertex -1.82709 134.813 0
    endloop
  endfacet
  facet normal 0 0 -1
    outer loop
      vertex -2 0 0
      vertex -1.9563 -0.415823 0
      vertex -1.98904 -0.209057 0
    endloop
  endfacet
  facet normal 0 0 -1
    outer loop
      vertex -1.82709 134.813 0
      vertex -2 134 0
      vertex -1.90211 134.618 0
    endloop
  endfacet
  facet normal 0 0 -1
    outer loop
      vertex -1.90211 134.618 0
      vertex -2 134 0
      vertex -1.9563 134.416 0
    endloop
  endfacet
  facet normal 0 0 -1
    outer loop
      vertex -1.9563 134.416 0
      vertex -2 134 0
      vertex -1.98904 134.209 0
    endloop
  endfacet
  facet normal -0.838673 -0.544636 0
    outer loop
      vertex -1.61803 -1.17557 0
      vertex -1.73205 -0.999999 4.5
      vertex -1.73205 -0.999999 0
    endloop
  endfacet
  facet normal -0.838673 -0.544636 0
    outer loop
      vertex -1.73205 -0.999999 4.5
      vertex -1.61803 -1.17557 0
      vertex -1.61803 -1.17557 4.5
    endloop
  endfacet
  facet normal -0.45399 -0.891007 0
    outer loop
      vertex -1 -1.73205 0
      vertex -0.813473 -1.82709 4.5
      vertex -1 -1.73205 4.5
    endloop
  endfacet
  facet normal -0.45399 -0.891007 -0
    outer loop
      vertex -0.813473 -1.82709 4.5
      vertex -1 -1.73205 0
      vertex -0.813473 -1.82709 0
    endloop
  endfacet
  facet normal -0.0523386 -0.998629 0
    outer loop
      vertex -0.209057 -1.98904 0
      vertex 0 -2 4.5
      vertex -0.209057 -1.98904 4.5
    endloop
  endfacet
  facet normal -0.0523386 -0.998629 -0
    outer loop
      vertex 0 -2 4.5
      vertex -0.209057 -1.98904 0
      vertex 0 -2 0
    endloop
  endfacet
  facet normal 0.544644 -0.838667 0
    outer loop
      vertex 77 -1.73205 0
      vertex 77.1756 -1.61803 4.5
      vertex 77 -1.73205 4.5
    endloop
  endfacet
  facet normal 0.544644 -0.838667 0
    outer loop
      vertex 77.1756 -1.61803 4.5
      vertex 77 -1.73205 0
      vertex 77.1756 -1.61803 0
    endloop
  endfacet
  facet normal 0.987691 -0.15642 0
    outer loop
      vertex 77.9563 -0.415823 4.5
      vertex 77.989 -0.209057 0
      vertex 77.989 -0.209057 4.5
    endloop
  endfacet
  facet normal 0.987691 -0.15642 0
    outer loop
      vertex 77.989 -0.209057 0
      vertex 77.9563 -0.415823 4.5
      vertex 77.9563 -0.415823 0
    endloop
  endfacet
  facet normal -0.965926 0.25882 0
    outer loop
      vertex -1.9563 134.416 0
      vertex -1.90211 134.618 4.5
      vertex -1.90211 134.618 0
    endloop
  endfacet
  facet normal -0.965926 0.25882 0
    outer loop
      vertex -1.90211 134.618 4.5
      vertex -1.9563 134.416 0
      vertex -1.9563 134.416 4.5
    endloop
  endfacet
  facet normal -0.933586 0.358354 0
    outer loop
      vertex -1.90211 134.618 0
      vertex -1.82709 134.813 4.5
      vertex -1.82709 134.813 0
    endloop
  endfacet
  facet normal -0.933586 0.358354 0
    outer loop
      vertex -1.82709 134.813 4.5
      vertex -1.90211 134.618 0
      vertex -1.90211 134.618 4.5
    endloop
  endfacet
  facet normal -0.891003 0.453998 0
    outer loop
      vertex -1.82709 134.813 0
      vertex -1.73205 135 4.5
      vertex -1.73205 135 0
    endloop
  endfacet
  facet normal -0.891003 0.453998 0
    outer loop
      vertex -1.73205 135 4.5
      vertex -1.82709 134.813 0
      vertex -1.82709 134.813 4.5
    endloop
  endfacet
  facet normal 0.933578 0.358373 0
    outer loop
      vertex 77.9021 134.618 4.5
      vertex 77.8271 134.813 0
      vertex 77.8271 134.813 4.5
    endloop
  endfacet
  facet normal 0.933578 0.358373 0
    outer loop
      vertex 77.8271 134.813 0
      vertex 77.9021 134.618 4.5
      vertex 77.9021 134.618 0
    endloop
  endfacet
  facet normal 0.453965 0.891019 -0
    outer loop
      vertex 77 135.732 0
      vertex 76.8135 135.827 4.5
      vertex 77 135.732 4.5
    endloop
  endfacet
  facet normal 0.453965 0.891019 0
    outer loop
      vertex 76.8135 135.827 4.5
      vertex 77 135.732 0
      vertex 76.8135 135.827 0
    endloop
  endfacet
  facet normal -0.35839 0.933572 0
    outer loop
      vertex -0.618033 135.902 0
      vertex -0.813473 135.827 4.5
      vertex -0.618033 135.902 4.5
    endloop
  endfacet
  facet normal -0.35839 0.933572 0
    outer loop
      vertex -0.813473 135.827 4.5
      vertex -0.618033 135.902 0
      vertex -0.813473 135.827 0
    endloop
  endfacet
  facet normal 0.358386 0.933574 -0
    outer loop
      vertex 76.8135 135.827 0
      vertex 76.618 135.902 4.5
      vertex 76.8135 135.827 4.5
    endloop
  endfacet
  facet normal 0.358386 0.933574 0
    outer loop
      vertex 76.618 135.902 4.5
      vertex 76.8135 135.827 0
      vertex 76.618 135.902 0
    endloop
  endfacet
  facet normal 0.258828 0.965923 -0
    outer loop
      vertex 76.618 135.902 0
      vertex 76.4158 135.956 4.5
      vertex 76.618 135.902 4.5
    endloop
  endfacet
  facet normal 0.258828 0.965923 0
    outer loop
      vertex 76.4158 135.956 4.5
      vertex 76.618 135.902 0
      vertex 76.4158 135.956 0
    endloop
  endfacet
  facet normal -0.258827 0.965924 0
    outer loop
      vertex -0.415823 135.956 0
      vertex -0.618033 135.902 4.5
      vertex -0.415823 135.956 4.5
    endloop
  endfacet
  facet normal -0.258827 0.965924 0
    outer loop
      vertex -0.618033 135.902 4.5
      vertex -0.415823 135.956 0
      vertex -0.618033 135.902 0
    endloop
  endfacet
  facet normal 0.98769 0.156427 0
    outer loop
      vertex 77.989 134.209 4.5
      vertex 77.9563 134.416 0
      vertex 77.9563 134.416 4.5
    endloop
  endfacet
  facet normal 0.98769 0.156427 0
    outer loop
      vertex 77.9563 134.416 0
      vertex 77.989 134.209 4.5
      vertex 77.989 134.209 0
    endloop
  endfacet
  facet normal -0.987689 -0.156433 0
    outer loop
      vertex -1.9563 -0.415823 0
      vertex -1.98904 -0.209057 4.5
      vertex -1.98904 -0.209057 0
    endloop
  endfacet
  facet normal -0.987689 -0.156433 0
    outer loop
      vertex -1.98904 -0.209057 4.5
      vertex -1.9563 -0.415823 0
      vertex -1.9563 -0.415823 4.5
    endloop
  endfacet
  facet normal -0.998629 -0.0523386 0
    outer loop
      vertex -1.98904 -0.209057 0
      vertex -2 0 4.5
      vertex -2 0 0
    endloop
  endfacet
  facet normal -0.998629 -0.0523386 0
    outer loop
      vertex -2 0 4.5
      vertex -1.98904 -0.209057 0
      vertex -1.98904 -0.209057 4.5
    endloop
  endfacet
  facet normal -0.891006 -0.453992 0
    outer loop
      vertex -1.73205 -0.999999 0
      vertex -1.82709 -0.813473 4.5
      vertex -1.82709 -0.813473 0
    endloop
  endfacet
  facet normal -0.891006 -0.453992 0
    outer loop
      vertex -1.82709 -0.813473 4.5
      vertex -1.73205 -0.999999 0
      vertex -1.73205 -0.999999 4.5
    endloop
  endfacet
  facet normal -0.93358 -0.35837 0
    outer loop
      vertex -1.82709 -0.813473 0
      vertex -1.90211 -0.618033 4.5
      vertex -1.90211 -0.618033 0
    endloop
  endfacet
  facet normal -0.93358 -0.35837 0
    outer loop
      vertex -1.90211 -0.618033 4.5
      vertex -1.82709 -0.813473 0
      vertex -1.82709 -0.813473 4.5
    endloop
  endfacet
  facet normal -0.629322 -0.777145 0
    outer loop
      vertex -1.33826 -1.48629 0
      vertex -1.17557 -1.61803 4.5
      vertex -1.33826 -1.48629 4.5
    endloop
  endfacet
  facet normal -0.629322 -0.777145 -0
    outer loop
      vertex -1.17557 -1.61803 4.5
      vertex -1.33826 -1.48629 0
      vertex -1.17557 -1.61803 0
    endloop
  endfacet
  facet normal -0.707107 -0.707107 0
    outer loop
      vertex -1.33826 -1.48629 0
      vertex -1.48629 -1.33826 4.5
      vertex -1.48629 -1.33826 0
    endloop
  endfacet
  facet normal -0.707107 -0.707107 0
    outer loop
      vertex -1.48629 -1.33826 4.5
      vertex -1.33826 -1.48629 0
      vertex -1.33826 -1.48629 4.5
    endloop
  endfacet
  facet normal -0.258819 -0.965926 0
    outer loop
      vertex -0.618033 -1.90211 0
      vertex -0.415823 -1.9563 4.5
      vertex -0.618033 -1.90211 4.5
    endloop
  endfacet
  facet normal -0.258819 -0.965926 -0
    outer loop
      vertex -0.415823 -1.9563 4.5
      vertex -0.618033 -1.90211 0
      vertex -0.415823 -1.9563 0
    endloop
  endfacet
  facet normal -0.35837 -0.93358 0
    outer loop
      vertex -0.813473 -1.82709 0
      vertex -0.618033 -1.90211 4.5
      vertex -0.813473 -1.82709 4.5
    endloop
  endfacet
  facet normal -0.35837 -0.93358 -0
    outer loop
      vertex -0.618033 -1.90211 4.5
      vertex -0.813473 -1.82709 0
      vertex -0.618033 -1.90211 0
    endloop
  endfacet
  facet normal 0.838679 -0.544626 0
    outer loop
      vertex 77.618 -1.17557 4.5
      vertex 77.732 -0.999999 0
      vertex 77.732 -0.999999 4.5
    endloop
  endfacet
  facet normal 0.838679 -0.544626 0
    outer loop
      vertex 77.732 -0.999999 0
      vertex 77.618 -1.17557 4.5
      vertex 77.618 -1.17557 0
    endloop
  endfacet
  facet normal 0.891008 -0.453988 0
    outer loop
      vertex 77.732 -0.999999 4.5
      vertex 77.8271 -0.813473 0
      vertex 77.8271 -0.813473 4.5
    endloop
  endfacet
  facet normal 0.891008 -0.453988 0
    outer loop
      vertex 77.8271 -0.813473 0
      vertex 77.732 -0.999999 4.5
      vertex 77.732 -0.999999 0
    endloop
  endfacet
  facet normal 0.25882 -0.965926 0
    outer loop
      vertex 76.4158 -1.9563 0
      vertex 76.618 -1.90211 4.5
      vertex 76.4158 -1.9563 4.5
    endloop
  endfacet
  facet normal 0.25882 -0.965926 0
    outer loop
      vertex 76.618 -1.90211 4.5
      vertex 76.4158 -1.9563 0
      vertex 76.618 -1.90211 0
    endloop
  endfacet
  facet normal 0.629324 -0.777143 0
    outer loop
      vertex 77.1756 -1.61803 0
      vertex 77.3383 -1.48629 4.5
      vertex 77.1756 -1.61803 4.5
    endloop
  endfacet
  facet normal 0.629324 -0.777143 0
    outer loop
      vertex 77.3383 -1.48629 4.5
      vertex 77.1756 -1.61803 0
      vertex 77.3383 -1.48629 0
    endloop
  endfacet
  facet normal -0.987687 0.15644 0
    outer loop
      vertex -1.98904 134.209 0
      vertex -1.9563 134.416 4.5
      vertex -1.9563 134.416 0
    endloop
  endfacet
  facet normal -0.987687 0.15644 0
    outer loop
      vertex -1.9563 134.416 4.5
      vertex -1.98904 134.209 0
      vertex -1.98904 134.209 4.5
    endloop
  endfacet
  facet normal 0.777143 0.629324 0
    outer loop
      vertex 77.618 135.176 4.5
      vertex 77.4863 135.338 0
      vertex 77.4863 135.338 4.5
    endloop
  endfacet
  facet normal 0.777143 0.629324 0
    outer loop
      vertex 77.4863 135.338 0
      vertex 77.618 135.176 4.5
      vertex 77.618 135.176 0
    endloop
  endfacet
  facet normal -0.7071 0.707114 0
    outer loop
      vertex -1.33826 135.486 0
      vertex -1.48629 135.338 4.5
      vertex -1.33826 135.486 4.5
    endloop
  endfacet
  facet normal -0.7071 0.707114 0
    outer loop
      vertex -1.48629 135.338 4.5
      vertex -1.33826 135.486 0
      vertex -1.48629 135.338 0
    endloop
  endfacet
  facet normal -0.45396 0.891022 0
    outer loop
      vertex -0.813473 135.827 0
      vertex -0.999999 135.732 4.5
      vertex -0.813473 135.827 4.5
    endloop
  endfacet
  facet normal -0.45396 0.891022 0
    outer loop
      vertex -0.999999 135.732 4.5
      vertex -0.813473 135.827 0
      vertex -0.999999 135.732 0
    endloop
  endfacet
  facet normal -0.544678 0.838645 0
    outer loop
      vertex -0.999999 135.732 0
      vertex -1.17557 135.618 4.5
      vertex -0.999999 135.732 4.5
    endloop
  endfacet
  facet normal -0.544678 0.838645 0
    outer loop
      vertex -1.17557 135.618 4.5
      vertex -0.999999 135.732 0
      vertex -1.17557 135.618 0
    endloop
  endfacet
  facet normal 0.965924 -0.258827 0
    outer loop
      vertex 77.9021 -0.618033 4.5
      vertex 77.9563 -0.415823 0
      vertex 77.9563 -0.415823 4.5
    endloop
  endfacet
  facet normal 0.965924 -0.258827 0
    outer loop
      vertex 77.9563 -0.415823 0
      vertex 77.9021 -0.618033 4.5
      vertex 77.9021 -0.618033 0
    endloop
  endfacet
  facet normal 0.777145 -0.629322 0
    outer loop
      vertex 77.4863 -1.33826 4.5
      vertex 77.618 -1.17557 0
      vertex 77.618 -1.17557 4.5
    endloop
  endfacet
  facet normal 0.777145 -0.629322 0
    outer loop
      vertex 77.618 -1.17557 0
      vertex 77.4863 -1.33826 4.5
      vertex 77.4863 -1.33826 0
    endloop
  endfacet
  facet normal 0.156434 -0.987688 0
    outer loop
      vertex 76.2091 -1.98904 0
      vertex 76.4158 -1.9563 4.5
      vertex 76.2091 -1.98904 4.5
    endloop
  endfacet
  facet normal 0.156434 -0.987688 0
    outer loop
      vertex 76.4158 -1.9563 4.5
      vertex 76.2091 -1.98904 0
      vertex 76.4158 -1.9563 0
    endloop
  endfacet
  facet normal 0.0523377 -0.998629 0
    outer loop
      vertex 76 -2 0
      vertex 76.2091 -1.98904 4.5
      vertex 76 -2 4.5
    endloop
  endfacet
  facet normal 0.0523377 -0.998629 0
    outer loop
      vertex 76.2091 -1.98904 4.5
      vertex 76 -2 0
      vertex 76.2091 -1.98904 0
    endloop
  endfacet
  facet normal 0.453998 -0.891003 0
    outer loop
      vertex 76.8135 -1.82709 0
      vertex 77 -1.73205 4.5
      vertex 76.8135 -1.82709 4.5
    endloop
  endfacet
  facet normal 0.453998 -0.891003 0
    outer loop
      vertex 77 -1.73205 4.5
      vertex 76.8135 -1.82709 0
      vertex 77 -1.73205 0
    endloop
  endfacet
  facet normal 0.358366 -0.933581 0
    outer loop
      vertex 76.618 -1.90211 0
      vertex 76.8135 -1.82709 4.5
      vertex 76.618 -1.90211 4.5
    endloop
  endfacet
  facet normal 0.358366 -0.933581 0
    outer loop
      vertex 76.8135 -1.82709 4.5
      vertex 76.618 -1.90211 0
      vertex 76.8135 -1.82709 0
    endloop
  endfacet
  facet normal 0.544686 0.83864 -0
    outer loop
      vertex 77.1756 135.618 0
      vertex 77 135.732 4.5
      vertex 77.1756 135.618 4.5
    endloop
  endfacet
  facet normal 0.544686 0.83864 0
    outer loop
      vertex 77 135.732 4.5
      vertex 77.1756 135.618 0
      vertex 77 135.732 0
    endloop
  endfacet
  facet normal 0.838673 0.544635 0
    outer loop
      vertex 77.732 135 4.5
      vertex 77.618 135.176 0
      vertex 77.618 135.176 4.5
    endloop
  endfacet
  facet normal 0.838673 0.544635 0
    outer loop
      vertex 77.618 135.176 0
      vertex 77.732 135 4.5
      vertex 77.732 135 0
    endloop
  endfacet
  facet normal 0.0523331 0.99863 -0
    outer loop
      vertex 76.2091 135.989 0
      vertex 76 136 4.5
      vertex 76.2091 135.989 4.5
    endloop
  endfacet
  facet normal 0.0523331 0.99863 0
    outer loop
      vertex 76 136 4.5
      vertex 76.2091 135.989 0
      vertex 76 136 0
    endloop
  endfacet
  facet normal -0.0523341 0.99863 0
    outer loop
      vertex 0 136 0
      vertex -0.209057 135.989 4.5
      vertex 0 136 4.5
    endloop
  endfacet
  facet normal -0.0523341 0.99863 0
    outer loop
      vertex -0.209057 135.989 4.5
      vertex 0 136 0
      vertex -0.209057 135.989 0
    endloop
  endfacet
  facet normal -0.15642 0.987691 0
    outer loop
      vertex -0.209057 135.989 0
      vertex -0.415823 135.956 4.5
      vertex -0.209057 135.989 4.5
    endloop
  endfacet
  facet normal -0.15642 0.987691 0
    outer loop
      vertex -0.415823 135.956 4.5
      vertex -0.209057 135.989 0
      vertex -0.415823 135.956 0
    endloop
  endfacet
  facet normal -0.777143 0.629324 0
    outer loop
      vertex -1.61803 135.176 0
      vertex -1.48629 135.338 4.5
      vertex -1.48629 135.338 0
    endloop
  endfacet
  facet normal -0.777143 0.629324 0
    outer loop
      vertex -1.48629 135.338 4.5
      vertex -1.61803 135.176 0
      vertex -1.61803 135.176 4.5
    endloop
  endfacet
  facet normal -0.629322 0.777145 0
    outer loop
      vertex -1.17557 135.618 0
      vertex -1.33826 135.486 4.5
      vertex -1.17557 135.618 4.5
    endloop
  endfacet
  facet normal -0.629322 0.777145 0
    outer loop
      vertex -1.33826 135.486 4.5
      vertex -1.17557 135.618 0
      vertex -1.33826 135.486 0
    endloop
  endfacet
  facet normal 0.629324 0.777143 -0
    outer loop
      vertex 77.3383 135.486 0
      vertex 77.1756 135.618 4.5
      vertex 77.3383 135.486 4.5
    endloop
  endfacet
  facet normal 0.629324 0.777143 0
    outer loop
      vertex 77.1756 135.618 4.5
      vertex 77.3383 135.486 0
      vertex 77.1756 135.618 0
    endloop
  endfacet
  facet normal 0.707089 0.707125 -0
    outer loop
      vertex 77.4863 135.338 0
      vertex 77.3383 135.486 4.5
      vertex 77.4863 135.338 4.5
    endloop
  endfacet
  facet normal 0.707089 0.707125 0
    outer loop
      vertex 77.3383 135.486 4.5
      vertex 77.4863 135.338 0
      vertex 77.3383 135.486 0
    endloop
  endfacet
  facet normal 0.156421 0.98769 -0
    outer loop
      vertex 76.4158 135.956 0
      vertex 76.2091 135.989 4.5
      vertex 76.4158 135.956 4.5
    endloop
  endfacet
  facet normal 0.156421 0.98769 0
    outer loop
      vertex 76.2091 135.989 4.5
      vertex 76.4158 135.956 0
      vertex 76.2091 135.989 0
    endloop
  endfacet
endsolid OpenSCAD_Model
